<svg width="24" height="24" viewBox="0 0 24 24" fill="none" xmlns="http://www.w3.org/2000/svg">
<rect width="24" height="24" fill="white"/>
<path d="M15.832 17.915C16.3806 17.9948 16.9586 17.8229 17.3807 17.3993C17.6496 17.1295 17.8167 16.7961 17.882 16.4474C17.9484 16.2076 17.965 15.9568 17.932 15.7115C17.9933 15.2415 18.1431 14.5818 18.509 14.2145C18.8485 13.8738 19.4101 13.7486 19.8421 13.7047C20.4082 13.8064 21.013 13.6377 21.4505 13.1987L21.4587 13.1904L21.4672 13.1819C22.1776 12.469 22.1776 11.3132 21.4672 10.6003C21.0268 10.1583 20.4166 9.99032 19.8471 10.0965C19.4123 10.0545 18.8375 9.93092 18.4922 9.58448C18.1263 9.21724 17.9766 8.55756 17.9153 8.08752C17.9887 7.54229 17.8166 6.97017 17.399 6.55111C16.9322 6.0827 16.275 5.92207 15.6775 6.06921C15.2578 6.01834 14.7418 5.88856 14.4224 5.56803C14.0565 5.20079 13.9067 4.54111 13.8454 4.07106C13.9188 3.52584 13.7467 2.95372 13.3291 2.53466C12.6188 1.82178 11.4671 1.82178 10.7567 2.53466C10.0464 3.24755 10.0464 4.40337 10.7567 5.11625C11.1743 5.53531 11.7444 5.70803 12.2877 5.63442C12.756 5.6959 13.4134 5.84619 13.7793 6.21343C14.1392 6.57463 14.2578 7.18637 14.2944 7.6281C14.2149 8.17864 14.3862 8.75864 14.8083 9.18225C15.267 9.64266 15.9099 9.80572 16.499 9.67143C16.9509 9.74362 17.5188 9.89834 17.8492 10.2299C18.2091 10.5911 18.3276 11.2028 18.3643 11.6446C18.3362 11.8392 18.3394 12.0375 18.3739 12.2312C18.3301 12.6648 18.2054 13.2284 17.8659 13.5691C17.5 13.9364 16.8426 14.0867 16.3743 14.1482C15.831 14.0745 15.2609 14.2473 14.8433 14.6663C14.5744 14.9362 14.4073 15.2695 14.342 15.6183C14.274 15.8639 14.2582 16.121 14.2944 16.3719C14.2578 16.8136 14.1392 17.4254 13.7793 17.7866C13.4134 18.1538 12.756 18.3041 12.2877 18.3656C11.7444 18.292 11.1743 18.4647 10.7567 18.8837C10.0464 19.5966 10.0464 20.7525 10.7567 21.4653C11.4671 22.1782 12.6188 22.1782 13.3291 21.4653C13.7467 21.0463 13.9188 20.4742 13.8455 19.9289C13.9067 19.4589 14.0565 18.7992 14.4224 18.432C14.7823 18.0708 15.3919 17.9518 15.832 17.915Z" fill="url(#paint0_linear_8642_56771)"/>
<path d="M2.53276 13.3247C3.24311 14.0376 4.39481 14.0376 5.10515 13.3247C5.8155 12.6118 5.8155 11.456 5.10515 10.7431C4.39481 10.0303 3.24311 10.0303 2.53276 10.7431C1.82241 11.456 1.82241 12.6118 2.53276 13.3247Z" fill="url(#paint1_linear_8642_56771)"/>
<path d="M13.312 13.1819L13.3035 13.1903L13.2953 13.1987C12.8578 13.6377 12.253 13.8063 11.6869 13.7046C11.2549 13.7486 10.6933 13.8738 10.3538 14.2145C9.98785 14.5817 9.83809 15.2414 9.77683 15.7115C9.85018 16.2567 9.67808 16.8288 9.26051 17.2479C8.55017 17.9608 7.39847 17.9608 6.68812 17.2479C5.97777 16.535 5.97777 15.3792 6.68812 14.6663C7.10569 14.2472 7.67576 14.0745 8.21905 14.1481C8.68742 14.0866 9.34475 13.9363 9.71068 13.5691C10.0502 13.2284 10.1749 12.6648 10.2187 12.2312C10.1842 12.0374 10.1809 11.8391 10.2091 11.6445C10.1724 11.2028 10.0539 10.591 9.69395 10.2298C9.32801 9.8626 8.67068 9.71231 8.20231 9.65083C7.65903 9.72444 7.08895 9.55172 6.67138 9.13266C5.96104 8.41978 5.96104 7.26396 6.67138 6.55108C7.38173 5.83819 8.53343 5.83819 9.24378 6.55108C9.66134 6.97014 9.83345 7.54225 9.7601 8.08747C9.82136 8.55752 9.97111 9.2172 10.337 9.58444C10.6823 9.93089 11.2571 10.0545 11.6919 10.0965C12.2614 9.99029 12.8716 10.1582 13.312 10.6003C14.0224 11.3132 14.0224 12.469 13.312 13.1819Z" fill="url(#paint2_linear_8642_56771)"/>
<defs>
<linearGradient id="paint0_linear_8642_56771" x1="4.04577" y1="11.7768" x2="19.6188" y2="15.5391" gradientUnits="userSpaceOnUse">
<stop stop-color="#F16485"/>
<stop offset="0.506687" stop-color="#984E8E"/>
<stop offset="1" stop-color="#4B94F9"/>
</linearGradient>
<linearGradient id="paint1_linear_8642_56771" x1="4.04577" y1="11.7768" x2="19.6188" y2="15.5391" gradientUnits="userSpaceOnUse">
<stop stop-color="#F16485"/>
<stop offset="0.506687" stop-color="#984E8E"/>
<stop offset="1" stop-color="#4B94F9"/>
</linearGradient>
<linearGradient id="paint2_linear_8642_56771" x1="4.04577" y1="11.7768" x2="19.6188" y2="15.5391" gradientUnits="userSpaceOnUse">
<stop stop-color="#F16485"/>
<stop offset="0.506687" stop-color="#984E8E"/>
<stop offset="1" stop-color="#4B94F9"/>
</linearGradient>
</defs>
</svg>
