<svg width="24" height="24" viewBox="0 0 24 24" fill="none" xmlns="http://www.w3.org/2000/svg">
<path d="M16.5985 19.098C17.2567 19.1938 17.9503 18.9875 18.4568 18.4792C18.7795 18.1554 18.98 17.7554 19.0584 17.3368C19.138 17.0491 19.158 16.7482 19.1184 16.4538C19.192 15.8898 19.3717 15.0981 19.8108 14.6574C20.2182 14.2486 20.8921 14.0984 21.4106 14.0456C22.0898 14.1676 22.8157 13.9653 23.3406 13.4384L23.3504 13.4285L23.3607 13.4183C24.2131 12.5628 24.2131 11.1758 23.3607 10.3204C22.8321 9.78991 22.0999 9.58839 21.4166 9.7158C20.8948 9.66543 20.205 9.51711 19.7907 9.10137C19.3516 8.66069 19.1719 7.86907 19.0984 7.30502C19.1864 6.65075 18.9799 5.96421 18.4788 5.46133C17.9187 4.89924 17.1299 4.70648 16.413 4.88305C15.9093 4.82201 15.2901 4.66628 14.9069 4.28163C14.4678 3.84095 14.288 3.04933 14.2145 2.48527C14.3026 1.831 14.096 1.14447 13.595 0.641597C12.7425 -0.213865 11.3605 -0.213866 10.5081 0.641597C9.65567 1.49706 9.65567 2.88404 10.5081 3.7395C11.0092 4.24237 11.6933 4.44964 12.3452 4.3613C12.9072 4.43508 13.696 4.61542 14.1352 5.05611C14.5671 5.48955 14.7093 6.22364 14.7533 6.75372C14.6578 7.41436 14.8634 8.11037 15.3699 8.6187C15.9204 9.17119 16.6918 9.36686 17.3988 9.20572C17.9411 9.29234 18.6226 9.478 19.019 9.87585C19.4509 10.3093 19.5931 11.0434 19.6371 11.5735C19.6034 11.807 19.6073 12.045 19.6487 12.2775C19.5961 12.7978 19.4465 13.4741 19.0391 13.883C18.5999 14.3237 17.8112 14.504 17.2491 14.5778C16.5972 14.4894 15.9131 14.6967 15.412 15.1996C15.0893 15.5234 14.8888 15.9234 14.8104 16.3419C14.7288 16.6367 14.7098 16.9452 14.7533 17.2463C14.7093 17.7764 14.5671 18.5105 14.1352 18.9439C13.696 19.3846 12.9073 19.5649 12.3452 19.6387C11.6933 19.5504 11.0092 19.7576 10.5081 20.2605C9.65568 21.116 9.65568 22.5029 10.5081 23.3584C11.3605 24.2139 12.7425 24.2139 13.595 23.3584C14.096 22.8555 14.3026 22.169 14.2145 21.5147C14.2881 20.9507 14.4678 20.1591 14.9069 19.7184C15.3388 19.2849 16.0703 19.1422 16.5985 19.098Z" fill="url(#paint0_linear_8646_56774)"/>
<path d="M0.639312 13.5897C1.49173 14.4451 2.87377 14.4451 3.72618 13.5897C4.5786 12.7342 4.5786 11.3472 3.72618 10.4918C2.87377 9.63631 1.49173 9.63631 0.639312 10.4918C-0.213104 11.3472 -0.213104 12.7342 0.639312 13.5897Z" fill="url(#paint1_linear_8646_56774)"/>
<path d="M13.5744 13.4182L13.5643 13.4284L13.5544 13.4384C13.0294 13.9652 12.3036 14.1676 11.6243 14.0456C11.1059 14.0983 10.4319 14.2486 10.0245 14.6574C9.58542 15.0981 9.40571 15.8897 9.3322 16.4538C9.42022 17.108 9.21369 17.7946 8.71262 18.2974C7.8602 19.1529 6.47816 19.1529 5.62575 18.2974C4.77333 17.442 4.77333 16.055 5.62574 15.1995C6.12683 14.6967 6.81092 14.4894 7.46286 14.5777C8.02491 14.504 8.8137 14.3236 9.25282 13.8829C9.66021 13.4741 9.8099 12.7977 9.86249 12.2774C9.82101 12.0449 9.81713 11.807 9.85087 11.5734C9.80689 11.0433 9.66463 10.3092 9.23273 9.87581C8.79361 9.43512 8.00482 9.25477 7.44277 9.18099C6.79083 9.26933 6.10674 9.06207 5.60566 8.5592C4.75325 7.70373 4.75325 6.31675 5.60566 5.46129C6.45808 4.60583 7.84012 4.60583 8.69253 5.46129C9.19361 5.96416 9.40014 6.6507 9.31212 7.30497C9.38563 7.86902 9.56533 8.66064 10.0045 9.10133C10.4187 9.51707 11.1086 9.66538 11.6303 9.71576C12.3136 9.58834 13.0459 9.78987 13.5744 10.3203C14.4269 11.1758 14.4269 12.5628 13.5744 13.4182Z" fill="url(#paint2_linear_8646_56774)"/>
<defs>
<linearGradient id="paint0_linear_8646_56774" x1="2.45492" y1="11.7322" x2="21.1426" y2="16.2469" gradientUnits="userSpaceOnUse">
<stop stop-color="#F16485"/>
<stop offset="0.506687" stop-color="#984E8E"/>
<stop offset="1" stop-color="#4B94F9"/>
</linearGradient>
<linearGradient id="paint1_linear_8646_56774" x1="2.45492" y1="11.7322" x2="21.1426" y2="16.2469" gradientUnits="userSpaceOnUse">
<stop stop-color="#F16485"/>
<stop offset="0.506687" stop-color="#984E8E"/>
<stop offset="1" stop-color="#4B94F9"/>
</linearGradient>
<linearGradient id="paint2_linear_8646_56774" x1="2.45492" y1="11.7322" x2="21.1426" y2="16.2469" gradientUnits="userSpaceOnUse">
<stop stop-color="#F16485"/>
<stop offset="0.506687" stop-color="#984E8E"/>
<stop offset="1" stop-color="#4B94F9"/>
</linearGradient>
</defs>
</svg>
