<svg width="144" height="32" viewBox="0 0 144 32" fill="none" xmlns="http://www.w3.org/2000/svg">
<path d="M43.4606 16.2931C42.2799 15.889 41.4239 15.3991 40.8926 14.8234C40.3711 14.2476 40.1104 13.5506 40.1104 12.7324C40.1104 11.8132 40.4104 11.086 41.0106 10.5506C41.6108 10.0152 42.4521 9.74756 43.5344 9.74756C44.4495 9.74756 45.2464 9.85362 45.9253 10.0657C46.1615 10.1365 46.3484 10.2829 46.4862 10.5051C46.6338 10.7173 46.7076 10.9546 46.7076 11.2173V11.3536C46.7076 11.5456 46.6239 11.6971 46.4567 11.8082C46.2894 11.9092 46.1172 11.9243 45.9401 11.8536C45.2022 11.5607 44.4495 11.4142 43.682 11.4142C43.19 11.4142 42.8161 11.5304 42.5603 11.7627C42.3045 11.9951 42.1766 12.3183 42.1766 12.7324C42.1766 13.4597 42.639 13.9799 43.5639 14.2931C44.8922 14.7274 45.8122 15.2224 46.3238 15.7779C46.8453 16.3335 47.106 17.0507 47.106 17.9295C47.106 20.0507 45.8319 21.1113 43.2835 21.1113C42.4865 21.1113 41.7633 20.985 41.114 20.7325C40.8778 20.6416 40.6909 20.485 40.5531 20.2628C40.4252 20.0406 40.3613 19.7931 40.3613 19.5204V19.3386C40.3613 19.1466 40.44 19.0103 40.5974 18.9295C40.7548 18.8386 40.9172 18.8335 41.0844 18.9143C41.7338 19.2477 42.4177 19.4143 43.1359 19.4143C44.3855 19.4143 45.0103 18.9295 45.0103 17.9598C45.0103 17.5658 44.8922 17.2426 44.6561 16.9901C44.4199 16.7274 44.0214 16.4951 43.4606 16.2931Z" fill="white"/>
<path d="M48.8145 14.8537C48.6177 14.8537 48.4504 14.783 48.3127 14.6415C48.1749 14.49 48.1061 14.3133 48.1061 14.1112C48.1061 13.9092 48.1749 13.7375 48.3127 13.5961C48.4504 13.4547 48.6177 13.384 48.8145 13.384H49.5229C49.6115 13.384 49.6558 13.3385 49.6558 13.2476V11.3688C49.6558 11.1365 49.7345 10.9344 49.8919 10.7627C50.0592 10.591 50.2559 10.5051 50.4822 10.5051H50.7774C51.0037 10.5051 51.2005 10.591 51.3678 10.7627C51.535 10.9344 51.6187 11.1365 51.6187 11.3688V13.2476C51.6187 13.3385 51.663 13.384 51.7515 13.384H53.434C53.6308 13.384 53.7981 13.4547 53.9358 13.5961C54.0834 13.7375 54.1572 13.9092 54.1572 14.1112C54.1572 14.3133 54.0834 14.49 53.9358 14.6415C53.7981 14.783 53.6308 14.8537 53.434 14.8537H51.7515C51.663 14.8537 51.6187 14.8941 51.6187 14.9749V18.0355C51.6187 18.6921 51.6876 19.1163 51.8253 19.3083C51.9631 19.5002 52.2484 19.5961 52.6813 19.5961C52.9175 19.5961 53.0946 19.586 53.2126 19.5658C53.4094 19.5456 53.5816 19.5911 53.7292 19.7022C53.8768 19.8133 53.9506 19.9648 53.9506 20.1568C53.9506 20.379 53.8768 20.581 53.7292 20.7628C53.5914 20.9345 53.4193 21.0305 53.2126 21.0507C52.7797 21.0911 52.455 21.1113 52.2386 21.1113C51.2841 21.1113 50.6151 20.9042 50.2313 20.4901C49.8476 20.0658 49.6558 19.3133 49.6558 18.2325V14.9749C49.6558 14.8941 49.6115 14.8537 49.5229 14.8537H48.8145Z" fill="white"/>
<path d="M57.0416 20.9598C56.8153 20.9598 56.6185 20.8739 56.4513 20.7022C56.284 20.5305 56.2004 20.3285 56.2004 20.0961V13.9446C56.2004 13.7122 56.284 13.5102 56.4513 13.3385C56.6185 13.1668 56.8153 13.0809 57.0416 13.0809H57.3368C57.5631 13.0809 57.7599 13.1668 57.9272 13.3385C58.0944 13.5102 58.1781 13.7122 58.1781 13.9446V14.5809C58.1781 14.591 58.183 14.5961 58.1928 14.5961C58.2125 14.5961 58.2223 14.591 58.2223 14.5809C58.5077 14.1769 58.8816 13.8486 59.344 13.5961C59.8065 13.3335 60.3132 13.1718 60.8642 13.1112C61.0708 13.091 61.2479 13.1617 61.3955 13.3234C61.5431 13.4749 61.6169 13.6567 61.6169 13.8688C61.6169 14.0809 61.5431 14.2628 61.3955 14.4143C61.2479 14.5658 61.0708 14.6516 60.8642 14.6719C59.1226 14.8133 58.2519 15.7224 58.2519 17.3992V20.0961C58.2519 20.3285 58.1682 20.5305 58.001 20.7022C57.8337 20.8739 57.6369 20.9598 57.4106 20.9598H57.0416Z" fill="white"/>
<path d="M66.2042 14.3385C65.7024 14.3385 65.3138 14.485 65.0383 14.7779C64.7726 15.0607 64.6054 15.5203 64.5365 16.1567C64.5365 16.2375 64.5758 16.2779 64.6545 16.2779H67.5473C67.626 16.2779 67.6654 16.2375 67.6654 16.1567C67.626 14.9446 67.139 14.3385 66.2042 14.3385ZM66.5732 21.1113C65.2843 21.1113 64.2905 20.7679 63.5919 20.081C62.9032 19.384 62.5588 18.3638 62.5588 17.0204C62.5588 15.687 62.8687 14.6719 63.4886 13.9749C64.1085 13.2779 65.0038 12.9294 66.1747 12.9294C68.359 12.9294 69.4807 14.2021 69.5397 16.7476C69.5496 16.9901 69.4659 17.1921 69.2888 17.3537C69.1117 17.5153 68.9051 17.5961 68.669 17.5961H64.6398C64.5512 17.5961 64.5168 17.6416 64.5365 17.7325C64.6054 18.4093 64.8218 18.9042 65.1859 19.2174C65.5598 19.5204 66.1009 19.6719 66.8093 19.6719C67.2521 19.6719 67.7441 19.5961 68.2852 19.4446C68.4623 19.3941 68.6247 19.4244 68.7723 19.5355C68.9297 19.6467 69.0084 19.7982 69.0084 19.9901C69.0084 20.2224 68.9395 20.4295 68.8018 20.6113C68.6739 20.783 68.5017 20.8891 68.2852 20.9295C67.7342 21.0507 67.1636 21.1113 66.5732 21.1113Z" fill="white"/>
<path d="M74.7481 17.1719C73.3411 17.1719 72.6376 17.6163 72.6376 18.5052C72.6376 18.8285 72.7261 19.0911 72.9032 19.2931C73.0902 19.4951 73.3263 19.5961 73.6117 19.5961C74.1725 19.5961 74.6251 19.4194 74.9695 19.0658C75.3139 18.7022 75.486 18.2072 75.486 17.581V17.3082C75.486 17.2173 75.4418 17.1719 75.3532 17.1719H74.7481ZM73.0804 21.1113C72.4113 21.1113 71.8554 20.8891 71.4126 20.4446C70.9797 19.9901 70.7632 19.4042 70.7632 18.687C70.7632 17.8082 71.0879 17.1264 71.7373 16.6416C72.3965 16.1567 73.4001 15.9143 74.7481 15.9143H75.3532C75.4418 15.9143 75.486 15.8688 75.486 15.7779V15.6567C75.486 15.1921 75.3778 14.8688 75.1614 14.687C74.9449 14.4951 74.5612 14.3991 74.0102 14.3991C73.4395 14.3991 72.7409 14.5052 71.9144 14.7173C71.7373 14.7678 71.575 14.7375 71.4274 14.6264C71.2798 14.5052 71.206 14.3486 71.206 14.1567C71.206 13.9244 71.2749 13.7173 71.4126 13.5355C71.5504 13.3436 71.7275 13.2274 71.9439 13.187C72.6917 13.0153 73.3952 12.9294 74.0544 12.9294C75.3139 12.9294 76.1945 13.1617 76.6963 13.6264C77.1981 14.091 77.449 14.9042 77.449 16.0658V20.0961C77.449 20.3285 77.3653 20.5305 77.1981 20.7022C77.0406 20.8739 76.8488 20.9598 76.6225 20.9598H76.4601C76.224 20.9598 76.0223 20.879 75.855 20.7174C75.6878 20.5456 75.5992 20.3386 75.5894 20.0961V19.884C75.5894 19.8739 75.5844 19.8689 75.5746 19.8689C75.5549 19.8689 75.5451 19.8739 75.5451 19.884C74.9449 20.7022 74.1233 21.1113 73.0804 21.1113Z" fill="white"/>
<path d="M80.2317 20.9598C80.0054 20.9598 79.8086 20.8739 79.6414 20.7022C79.4839 20.5305 79.4052 20.3285 79.4052 20.0961V13.9446C79.4052 13.7122 79.4839 13.5102 79.6414 13.3385C79.8086 13.1668 80.0054 13.0809 80.2317 13.0809H80.4383C80.6646 13.0809 80.8565 13.1617 81.0139 13.3234C81.1812 13.485 81.2697 13.6819 81.2796 13.9143V14.0203C81.2796 14.0304 81.2845 14.0355 81.2943 14.0355C81.314 14.0355 81.3239 14.0304 81.3239 14.0203C81.9044 13.293 82.5587 12.9294 83.2868 12.9294C83.7296 12.9294 84.0838 13.0153 84.3494 13.187C84.6249 13.3587 84.866 13.6617 85.0726 14.0961C85.0726 14.1062 85.0824 14.1112 85.1021 14.1112C85.112 14.1112 85.1218 14.1062 85.1316 14.0961C85.7515 13.3183 86.4501 12.9294 87.2274 12.9294C88.0441 12.9294 88.6295 13.1567 88.9837 13.6112C89.3478 14.0658 89.5298 14.8486 89.5298 15.9597V20.0961C89.5298 20.3285 89.4462 20.5305 89.2789 20.7022C89.1215 20.8739 88.9296 20.9598 88.7033 20.9598H88.4524C88.2261 20.9598 88.0293 20.8739 87.862 20.7022C87.6948 20.5305 87.6111 20.3285 87.6111 20.0961V16.2628C87.6111 15.5254 87.5423 15.0405 87.4045 14.8082C87.2668 14.5759 87.0011 14.4597 86.6075 14.4597C86.3517 14.4597 86.0959 14.5809 85.8401 14.8234C85.5843 15.0658 85.4563 15.3082 85.4563 15.5506V20.0961C85.4563 20.3285 85.3727 20.5305 85.2054 20.7022C85.0382 20.8739 84.8414 20.9598 84.6151 20.9598H84.3642C84.1379 20.9598 83.9411 20.8739 83.7738 20.7022C83.6164 20.5305 83.5377 20.3285 83.5377 20.0961V16.2628C83.5377 15.5355 83.4639 15.0557 83.3163 14.8234C83.1786 14.5809 82.9129 14.4597 82.5193 14.4597C82.2635 14.4597 82.0077 14.5809 81.7519 14.8234C81.4961 15.0658 81.3681 15.3082 81.3681 15.5506V20.0961C81.3681 20.3285 81.2845 20.5305 81.1172 20.7022C80.95 20.8739 80.7532 20.9598 80.5269 20.9598H80.2317Z" fill="white"/>
<path d="M92.4865 20.9598C92.2602 20.9598 92.0634 20.8739 91.8962 20.7022C91.7289 20.5305 91.6453 20.3285 91.6453 20.0961V10.7627C91.6453 10.5304 91.7289 10.3284 91.8962 10.1567C92.0634 9.98493 92.2602 9.89908 92.4865 9.89908H92.8555C93.1113 9.89908 93.3474 9.96978 93.5639 10.1112C93.7804 10.2526 93.9378 10.4395 94.0362 10.6718L96.619 16.3991C96.619 16.4092 96.6239 16.4143 96.6337 16.4143C96.6436 16.4143 96.6485 16.4092 96.6485 16.3991L99.2313 10.6718C99.3297 10.4395 99.4871 10.2526 99.7036 10.1112C99.9201 9.96978 100.156 9.89908 100.412 9.89908H100.84C101.066 9.89908 101.263 9.98493 101.43 10.1567C101.598 10.3284 101.681 10.5304 101.681 10.7627V20.0961C101.681 20.3285 101.598 20.5305 101.43 20.7022C101.263 20.8739 101.066 20.9598 100.84 20.9598H100.515C100.289 20.9598 100.092 20.8739 99.925 20.7022C99.7577 20.5305 99.6741 20.3285 99.6741 20.0961V13.5052C99.6741 13.4951 99.6692 13.49 99.6593 13.49C99.6495 13.49 99.6446 13.4951 99.6446 13.5052L97.8735 17.3992C97.7653 17.6315 97.598 17.8234 97.3717 17.9749C97.1552 18.1163 96.924 18.187 96.678 18.187H96.5895C96.3435 18.187 96.1073 18.1163 95.881 17.9749C95.6646 17.8234 95.5022 17.6315 95.394 17.3992L93.6229 13.5052C93.6229 13.4951 93.618 13.49 93.6082 13.49C93.5983 13.49 93.5934 13.4951 93.5934 13.5052V20.0961C93.5934 20.3285 93.5098 20.5305 93.3425 20.7022C93.1753 20.8739 92.9785 20.9598 92.7522 20.9598H92.4865Z" fill="white"/>
<path d="M105.842 20.8386L103.392 13.884C103.333 13.6819 103.357 13.5001 103.465 13.3385C103.574 13.1668 103.731 13.0809 103.938 13.0809H104.381C104.627 13.0809 104.853 13.1617 105.059 13.3234C105.266 13.4749 105.399 13.6718 105.458 13.9143L106.83 18.8689C106.83 18.879 106.835 18.884 106.845 18.884C106.855 18.884 106.86 18.879 106.86 18.8689L108.439 13.8991C108.518 13.6567 108.661 13.4597 108.867 13.3082C109.074 13.1567 109.3 13.0809 109.546 13.0809H109.9C110.107 13.0809 110.264 13.1668 110.373 13.3385C110.491 13.5102 110.51 13.692 110.432 13.884L106.83 23.4901C106.742 23.7326 106.594 23.9245 106.388 24.0659C106.181 24.2174 105.95 24.2932 105.694 24.2932H105.34C105.143 24.2932 104.986 24.2073 104.868 24.0356C104.759 23.874 104.745 23.6972 104.823 23.5053L105.842 21.081C105.861 21.0406 105.871 21.0002 105.871 20.9598C105.871 20.9194 105.861 20.879 105.842 20.8386Z" fill="white"/>
<path d="M114.033 11.6567V19.2022C114.033 19.2729 114.073 19.3184 114.151 19.3386C114.466 19.3891 114.762 19.4143 115.037 19.4143C116.188 19.4143 117.034 19.0961 117.576 18.4598C118.117 17.8133 118.387 16.7527 118.387 15.2779C118.387 13.9547 118.112 12.985 117.561 12.3688C117.01 11.7526 116.169 11.4445 115.037 11.4445C114.762 11.4445 114.466 11.4698 114.151 11.5203C114.073 11.5405 114.033 11.586 114.033 11.6567ZM112.823 21.0052C112.577 20.9749 112.375 20.8689 112.218 20.6871C112.061 20.4951 111.982 20.2729 111.982 20.0204V10.8385C111.982 10.586 112.061 10.3688 112.218 10.187C112.375 9.99504 112.577 9.88392 112.823 9.85362C113.453 9.78291 114.156 9.74756 114.934 9.74756C116.685 9.74756 118.023 10.2173 118.948 11.1567C119.883 12.0961 120.35 13.4698 120.35 15.2779C120.35 17.2173 119.883 18.6769 118.948 19.6568C118.023 20.6265 116.685 21.1113 114.934 21.1113C114.156 21.1113 113.453 21.076 112.823 21.0052Z" fill="white"/>
<path d="M125.482 17.1719C124.075 17.1719 123.371 17.6163 123.371 18.5052C123.371 18.8285 123.46 19.0911 123.637 19.2931C123.824 19.4951 124.06 19.5961 124.345 19.5961C124.906 19.5961 125.359 19.4194 125.703 19.0658C126.047 18.7022 126.22 18.2072 126.22 17.581V17.3082C126.22 17.2173 126.175 17.1719 126.087 17.1719H125.482ZM123.814 21.1113C123.145 21.1113 122.589 20.8891 122.146 20.4446C121.713 19.9901 121.497 19.4042 121.497 18.687C121.497 17.8082 121.821 17.1264 122.471 16.6416C123.13 16.1567 124.134 15.9143 125.482 15.9143H126.087C126.175 15.9143 126.22 15.8688 126.22 15.7779V15.6567C126.22 15.1921 126.111 14.8688 125.895 14.687C125.678 14.4951 125.295 14.3991 124.744 14.3991C124.173 14.3991 123.474 14.5052 122.648 14.7173C122.471 14.7678 122.308 14.7375 122.161 14.6264C122.013 14.5052 121.94 14.3486 121.94 14.1567C121.94 13.9244 122.008 13.7173 122.146 13.5355C122.284 13.3436 122.461 13.2274 122.677 13.187C123.425 13.0153 124.129 12.9294 124.788 12.9294C126.047 12.9294 126.928 13.1617 127.43 13.6264C127.932 14.091 128.183 14.9042 128.183 16.0658V20.0961C128.183 20.3285 128.099 20.5305 127.932 20.7022C127.774 20.8739 127.582 20.9598 127.356 20.9598H127.194C126.958 20.9598 126.756 20.879 126.589 20.7174C126.421 20.5456 126.333 20.3386 126.323 20.0961V19.884C126.323 19.8739 126.318 19.8689 126.308 19.8689C126.288 19.8689 126.279 19.8739 126.279 19.884C125.678 20.7022 124.857 21.1113 123.814 21.1113Z" fill="white"/>
<path d="M130.031 14.8537C129.835 14.8537 129.667 14.783 129.53 14.6415C129.392 14.49 129.323 14.3133 129.323 14.1112C129.323 13.9092 129.392 13.7375 129.53 13.5961C129.667 13.4547 129.835 13.384 130.031 13.384H130.74C130.828 13.384 130.873 13.3385 130.873 13.2476V11.3688C130.873 11.1365 130.951 10.9344 131.109 10.7627C131.276 10.591 131.473 10.5051 131.699 10.5051H131.994C132.221 10.5051 132.417 10.591 132.585 10.7627C132.752 10.9344 132.836 11.1365 132.836 11.3688V13.2476C132.836 13.3385 132.88 13.384 132.968 13.384H134.651C134.848 13.384 135.015 13.4547 135.153 13.5961C135.3 13.7375 135.374 13.9092 135.374 14.1112C135.374 14.3133 135.3 14.49 135.153 14.6415C135.015 14.783 134.848 14.8537 134.651 14.8537H132.968C132.88 14.8537 132.836 14.8941 132.836 14.9749V18.0355C132.836 18.6921 132.904 19.1163 133.042 19.3083C133.18 19.5002 133.465 19.5961 133.898 19.5961C134.134 19.5961 134.311 19.586 134.43 19.5658C134.626 19.5456 134.799 19.5911 134.946 19.7022C135.094 19.8133 135.167 19.9648 135.167 20.1568C135.167 20.379 135.094 20.581 134.946 20.7628C134.808 20.9345 134.636 21.0305 134.43 21.0507C133.997 21.0911 133.672 21.1113 133.455 21.1113C132.501 21.1113 131.832 20.9042 131.448 20.4901C131.065 20.0658 130.873 19.3133 130.873 18.2325V14.9749C130.873 14.8941 130.828 14.8537 130.74 14.8537H130.031Z" fill="white"/>
<path d="M140.889 17.1719C139.482 17.1719 138.779 17.6163 138.779 18.5052C138.779 18.8285 138.867 19.0911 139.044 19.2931C139.231 19.4951 139.467 19.5961 139.753 19.5961C140.313 19.5961 140.766 19.4194 141.11 19.0658C141.455 18.7022 141.627 18.2072 141.627 17.581V17.3082C141.627 17.2173 141.583 17.1719 141.494 17.1719H140.889ZM139.221 21.1113C138.552 21.1113 137.996 20.8891 137.554 20.4446C137.121 19.9901 136.904 19.4042 136.904 18.687C136.904 17.8082 137.229 17.1264 137.878 16.6416C138.538 16.1567 139.541 15.9143 140.889 15.9143H141.494C141.583 15.9143 141.627 15.8688 141.627 15.7779V15.6567C141.627 15.1921 141.519 14.8688 141.302 14.687C141.086 14.4951 140.702 14.3991 140.151 14.3991C139.58 14.3991 138.882 14.5052 138.055 14.7173C137.878 14.7678 137.716 14.7375 137.568 14.6264C137.421 14.5052 137.347 14.3486 137.347 14.1567C137.347 13.9244 137.416 13.7173 137.554 13.5355C137.691 13.3436 137.868 13.2274 138.085 13.187C138.833 13.0153 139.536 12.9294 140.195 12.9294C141.455 12.9294 142.335 13.1617 142.837 13.6264C143.339 14.091 143.59 14.9042 143.59 16.0658V20.0961C143.59 20.3285 143.506 20.5305 143.339 20.7022C143.182 20.8739 142.99 20.9598 142.763 20.9598H142.601C142.365 20.9598 142.163 20.879 141.996 20.7174C141.829 20.5456 141.74 20.3386 141.73 20.0961V19.884C141.73 19.8739 141.725 19.8689 141.716 19.8689C141.696 19.8689 141.686 19.8739 141.686 19.884C141.086 20.7022 140.264 21.1113 139.221 21.1113Z" fill="white"/>
<path d="M21.6346 25.464C22.4926 25.5917 23.3965 25.3167 24.0567 24.6389C24.4773 24.2072 24.7387 23.6738 24.8408 23.1158C24.9447 22.7321 24.9708 22.3309 24.9191 21.9384C25.015 21.1863 25.2492 20.1309 25.8215 19.5433C26.3525 18.9981 27.231 18.7978 27.9067 18.7275C28.7921 18.8902 29.7381 18.6204 30.4223 17.9179L30.4351 17.9047L30.4485 17.891C31.5595 16.7504 31.5595 14.9011 30.4485 13.7605C29.7595 13.0532 28.8051 12.7845 27.9145 12.9544C27.2345 12.8872 26.3353 12.6895 25.7954 12.1352C25.223 11.5476 24.9888 10.4921 24.893 9.74003C25.0077 8.86766 24.7385 7.95228 24.0854 7.28178C23.3554 6.53232 22.3273 6.27531 21.3929 6.51073C20.7364 6.42934 19.9293 6.2217 19.4297 5.70885C18.8574 5.12126 18.6232 4.06577 18.5273 3.3137C18.6421 2.44134 18.3729 1.52596 17.7198 0.855463C16.6087 -0.285153 14.8074 -0.285155 13.6963 0.855463C12.5853 1.99608 12.5853 3.84539 13.6963 4.986C14.3494 5.6565 15.2411 5.93285 16.0908 5.81507C16.8234 5.91344 17.8515 6.1539 18.4239 6.74148C18.9868 7.3194 19.1722 8.29819 19.2296 9.00496C19.1052 9.88582 19.3731 10.8138 20.0333 11.4916C20.7508 12.2282 21.7563 12.4891 22.6778 12.2743C23.3846 12.3898 24.2728 12.6373 24.7895 13.1678C25.3524 13.7457 25.5378 14.7245 25.5952 15.4313C25.5512 15.7427 25.5562 16.0599 25.6103 16.37C25.5418 17.0637 25.3467 17.9655 24.8157 18.5106C24.2433 19.0982 23.2152 19.3387 22.4826 19.437C21.6329 19.3193 20.7412 19.5956 20.0881 20.2661C19.6675 20.6979 19.4061 21.2312 19.304 21.7893C19.1977 22.1822 19.1729 22.5935 19.2296 22.9951C19.1722 23.7018 18.9868 24.6806 18.4239 25.2585C17.8515 25.8461 16.8234 26.0866 16.0908 26.1849C15.2411 26.0671 14.3494 26.3435 13.6963 27.014C12.5853 28.1546 12.5853 30.0039 13.6963 31.1445C14.8074 32.2852 16.6087 32.2852 17.7198 31.1445C18.3729 30.474 18.6421 29.5587 18.5274 28.6863C18.6232 27.9342 18.8574 26.8787 19.4298 26.2912C19.9927 25.7132 20.9461 25.5229 21.6346 25.464Z" fill="url(#paint0_linear_8637_56765)"/>
<path d="M0.833285 18.1196C1.94433 19.2602 3.74569 19.2602 4.85674 18.1196C5.96778 16.979 5.96778 15.1296 4.85674 13.989C3.74569 12.8484 1.94433 12.8484 0.833284 13.989C-0.277762 15.1296 -0.277761 16.979 0.833285 18.1196Z" fill="url(#paint1_linear_8637_56765)"/>
<path d="M17.693 17.891L17.6798 17.9045L17.6669 17.9179C16.9826 18.6203 16.0366 18.8901 15.1512 18.7274C14.4755 18.7978 13.5971 18.9981 13.0661 19.5432C12.4937 20.1308 12.2595 21.1863 12.1637 21.9384C12.2784 22.8107 12.0092 23.7261 11.3561 24.3966C10.245 25.5372 8.44369 25.5372 7.33264 24.3966C6.2216 23.256 6.22159 21.4067 7.33264 20.2661C7.98575 19.5956 8.8774 19.3192 9.72715 19.437C10.4597 19.3386 11.4878 19.0982 12.0602 18.5106C12.5912 17.9654 12.7863 17.0637 12.8548 16.3699C12.8008 16.0599 12.7957 15.7426 12.8397 15.4312C12.7824 14.7245 12.597 13.7457 12.034 13.1677C11.4617 12.5802 10.4335 12.3397 9.70097 12.2413C8.85122 12.3591 7.95957 12.0828 7.30646 11.4123C6.19542 10.2716 6.19542 8.42234 7.30646 7.28172C8.41751 6.1411 10.2189 6.14111 11.3299 7.28172C11.983 7.95222 12.2522 8.8676 12.1375 9.73996C12.2333 10.492 12.4675 11.5475 13.0399 12.1351C13.5798 12.6894 14.479 12.8872 15.159 12.9543C16.0497 12.7845 17.0041 13.0532 17.693 13.7605C18.8041 14.9011 18.8041 16.7504 17.693 17.891Z" fill="url(#paint2_linear_8637_56765)"/>
<defs>
<linearGradient id="paint0_linear_8637_56765" x1="3.19977" y1="15.6429" x2="27.6172" y2="21.4094" gradientUnits="userSpaceOnUse">
<stop stop-color="#F16485"/>
<stop offset="0.506687" stop-color="#984E8E"/>
<stop offset="1" stop-color="#4B94F9"/>
</linearGradient>
<linearGradient id="paint1_linear_8637_56765" x1="3.19977" y1="15.6429" x2="27.6172" y2="21.4094" gradientUnits="userSpaceOnUse">
<stop stop-color="#F16485"/>
<stop offset="0.506687" stop-color="#984E8E"/>
<stop offset="1" stop-color="#4B94F9"/>
</linearGradient>
<linearGradient id="paint2_linear_8637_56765" x1="3.19977" y1="15.6429" x2="27.6172" y2="21.4094" gradientUnits="userSpaceOnUse">
<stop stop-color="#F16485"/>
<stop offset="0.506687" stop-color="#984E8E"/>
<stop offset="1" stop-color="#4B94F9"/>
</linearGradient>
</defs>
</svg>
