<svg width="240" height="45" viewBox="0 0 240 45" fill="none" xmlns="http://www.w3.org/2000/svg">
<g clip-path="url(#clip0_6695_35060)">
<path d="M39.6287 6.13316L31.1398 37.7776H25.9842L20.162 18.5776L14.3397 37.7776H9.18419L0.739746 6.13316H7.18419L12.0731 26.0887L16.9175 9.59983C17.4509 7.14056 18.5768 5.91094 20.2953 5.91094C21.1546 5.91094 21.8064 6.23687 22.2509 6.88872C22.6953 7.51094 23.0953 8.41465 23.4509 9.59983L28.2509 26.0887L33.1842 6.13316H39.6287ZM46.0607 2.71094C47.4531 2.71094 48.3569 2.93316 48.7718 3.3776C49.1864 3.79243 49.394 4.69612 49.394 6.08872C49.394 7.45167 49.1718 8.35538 48.7273 8.79983C48.3124 9.21465 47.4087 9.42205 46.0162 9.42205C44.6531 9.42205 43.7495 9.19983 43.3051 8.75538C42.8902 8.31094 42.6829 7.40723 42.6829 6.04427C42.6829 4.68132 42.8902 3.79243 43.3051 3.3776C43.7495 2.93316 44.668 2.71094 46.0607 2.71094ZM48.9051 37.7776H43.1273V13.3332H48.9051V37.7776ZM77.1891 37.7776H70.2558L63.5891 28.7998L61.0558 32.3998V37.7776H55.278V4.35538H61.0558V25.4665L69.1447 13.422H75.678L67.3669 24.7998L77.1891 37.7776ZM83.1267 2.71094C84.5191 2.71094 85.4229 2.93316 85.8378 3.3776C86.2524 3.79243 86.46 4.69612 86.46 6.08872C86.46 7.45167 86.2378 8.35538 85.7933 8.79983C85.3784 9.21465 84.4747 9.42205 83.0822 9.42205C81.7191 9.42205 80.8155 9.19983 80.3711 8.75538C79.9562 8.31094 79.7489 7.40723 79.7489 6.04427C79.7489 4.68132 79.9562 3.79243 80.3711 3.3776C80.8155 2.93316 81.734 2.71094 83.1267 2.71094ZM85.9711 37.7776H80.1933V13.3332H85.9711V37.7776ZM97.9884 37.7776L92.2107 37.8221V4.35538H97.9884V37.7776ZM123.217 26.4443H108.417C108.417 28.7554 108.773 30.4443 109.484 31.5109C110.225 32.5776 111.691 33.1109 113.884 33.1109C115.306 33.1109 116.358 32.6665 117.039 31.7776C117.721 30.8592 118.062 29.9849 118.062 29.1554H123.262C123.262 32.3258 122.402 34.6516 120.684 36.1332C118.995 37.6147 116.743 38.3554 113.928 38.3554C111.143 38.3554 108.98 37.9554 107.439 37.1554C104.269 35.5258 102.684 31.1998 102.684 24.1776C102.684 19.9998 103.588 16.948 105.395 15.022C107.202 13.0665 109.958 12.0887 113.662 12.0887C120.091 12.0887 123.306 15.6591 123.306 22.7998C123.306 23.5703 123.276 24.7849 123.217 26.4443ZM108.55 22.4887H118.062C118.062 20.5332 117.691 19.1109 116.95 18.222C116.21 17.3332 115.069 16.8887 113.528 16.8887C112.017 16.8887 110.802 17.348 109.884 18.2665C108.995 19.1554 108.55 20.5628 108.55 22.4887ZM141.522 28.4887L146.766 28.4443C146.736 28.6814 146.707 29.1109 146.677 29.7332C146.648 30.3554 146.618 30.7849 146.588 31.022C146.588 31.2294 146.559 31.5703 146.5 32.0443C146.44 32.5183 146.366 32.8738 146.277 33.1109C146.218 33.3183 146.129 33.5998 146.011 33.9554C145.477 35.496 144.025 36.7109 141.655 37.5998C140.144 38.1332 138.559 38.3998 136.9 38.3998C135.27 38.3998 133.788 38.1332 132.455 37.5998C131.122 37.0665 130.07 36.3849 129.3 35.5554C127.551 33.7183 126.677 30.2814 126.677 25.2443C126.677 20.1776 127.551 16.7258 129.3 14.8887C130.07 14.0591 131.122 13.3776 132.455 12.8443C133.788 12.3109 135.27 12.0443 136.9 12.0443C140.1 12.0443 142.529 12.8443 144.188 14.4443C145.848 16.0443 146.677 18.2665 146.677 21.1109H141.433C141.433 19.8072 141.107 18.8443 140.455 18.222C139.803 17.5702 138.588 17.2443 136.811 17.2443C135.062 17.2443 133.892 17.7924 133.3 18.8887C132.736 19.985 132.455 21.6294 132.455 23.8221V26.1332C132.455 29.6592 133.136 31.8221 134.5 32.622C135.122 33.0072 135.936 33.1998 136.944 33.1998C137.951 33.1998 138.766 33.1109 139.388 32.9332C140.04 32.7258 140.5 32.3849 140.766 31.9109C141.062 31.4369 141.255 30.9776 141.344 30.5332C141.433 30.0592 141.492 29.3776 141.522 28.4887ZM162.435 37.7776H158.835C156.643 37.7776 154.969 37.1258 153.813 35.8221C152.687 34.5183 152.124 32.9627 152.124 31.1554V17.8221H149.68V13.422H152.124V8.44427H157.902V13.422H161.991V17.8221H157.902V30.7998C157.902 32.1925 158.569 32.8887 159.902 32.8887H162.435V37.7776Z" fill="black"/>
<path d="M231.111 0H182.222C177.313 0 173.333 3.97969 173.333 8.88889V35.5556C173.333 40.4648 177.313 44.4444 182.222 44.4444H231.111C236.02 44.4444 240 40.4648 240 35.5556V8.88889C240 3.97969 236.02 0 231.111 0Z" fill="#835FE5"/>
<path d="M197.022 31.956H184.92V12.6982H188.778V28.7827H197.022V31.956ZM213.2 31.956H201.098V12.6982H204.955V28.7827H213.2V31.956ZM220.075 12.6982C220.221 13.1338 220.397 13.6938 220.604 14.3782C220.833 15.0627 221.071 15.799 221.32 16.5871C221.569 17.3753 221.818 18.1738 222.067 18.9827C222.315 19.7916 222.553 20.5382 222.782 21.2227C223.031 20.4553 223.291 19.6671 223.56 18.8582C223.829 18.0286 224.089 17.2405 224.338 16.4938C224.587 15.7264 224.815 15.0108 225.022 14.3471C225.229 13.6834 225.415 13.1338 225.582 12.6982H228.755C228.9 14.3782 229.035 16.0168 229.16 17.6138C229.304 19.2108 229.42 20.7975 229.502 22.3738C229.607 23.9294 229.689 25.5056 229.751 27.1027C229.813 28.6789 229.864 30.2967 229.907 31.956H226.391L226.578 16.9916L224.213 25.1427H221.413L219.142 16.9916L219.298 31.956H215.782C215.844 30.3798 215.907 28.7411 215.969 27.0405C216.052 25.3398 216.135 23.6494 216.218 21.9694C216.301 20.2894 216.394 18.6612 216.498 17.0849C216.622 15.5086 216.757 14.0464 216.902 12.6982H220.075Z" fill="white"/>
</g>
<defs>
<clipPath id="clip0_6695_35060">
<rect width="240" height="44.4444" fill="white"/>
</clipPath>
</defs>
</svg>
