<svg width="1200" height="630" viewBox="0 0 1200 630" fill="none" xmlns="http://www.w3.org/2000/svg">
<g clip-path="url(#clip0_6938_34537)">
<rect width="1200" height="630" rx="40" fill="#1C1C1C"/>
<path opacity="0.0144928" d="M1393.67 849.686L1512.68 647.765C1515.76 642.542 1516.65 636.316 1515.16 630.44L1431.31 299.358C1430.14 294.736 1427.57 290.593 1423.94 287.5L1197.72 94.6745C1191.15 89.0672 1181.98 87.6216 1173.99 90.9323L986.431 168.702C978.447 172.013 972.992 179.521 972.312 188.138L948.915 484.461C948.539 489.213 949.65 493.965 952.093 498.058L1127.13 791.331C1130.23 796.536 1135.27 800.305 1141.14 801.817L1368.11 860.28C1378.04 862.837 1388.46 858.516 1393.67 849.686Z" stroke="url(#paint0_linear_6938_34537)" stroke-opacity="0.4" stroke-width="4"/>
<path opacity="0.0289855" d="M1357.03 858.64L1485.81 664.866C1489.17 659.81 1490.39 653.631 1489.22 647.675L1423.59 315.759C1422.67 311.068 1420.3 306.783 1416.82 303.499L1202.63 101.184C1196.36 95.2559 1187.29 93.3415 1179.16 96.226L988.95 163.658C980.814 166.542 974.978 173.74 973.837 182.297L934.911 474.348C934.279 479.088 935.14 483.906 937.375 488.134L1095.47 787.267C1098.31 792.634 1103.15 796.662 1108.95 798.473L1331.02 867.863C1340.78 870.912 1351.38 867.154 1357.03 858.64Z" stroke="url(#paint1_linear_6938_34537)" stroke-opacity="0.4" stroke-width="4"/>
<path opacity="0.0434783" d="M1320.36 866.432L1458.37 681.269C1462 676.395 1463.56 670.28 1462.7 664.261L1415.15 332.502C1414.47 327.754 1412.32 323.338 1409.01 319.871L1207.21 108.79C1201.25 102.558 1192.31 100.181 1184.05 102.633L991.763 159.664C983.498 162.116 977.298 168.984 975.701 177.456L921.629 464.429C920.741 469.142 921.349 474.015 923.367 478.366L1064.4 782.398C1066.96 787.913 1071.59 792.191 1077.3 794.297L1293.95 874.264C1303.52 877.795 1314.26 874.607 1320.36 866.432Z" stroke="url(#paint2_linear_6938_34537)" stroke-opacity="0.4" stroke-width="4"/>
<path opacity="0.057971" d="M1283.69 873.072L1430.4 696.95C1434.3 692.271 1436.18 686.238 1435.64 680.174L1405.97 349.546C1405.54 344.755 1403.62 340.218 1400.47 336.576L1211.4 117.465C1205.77 110.947 1196.98 108.116 1188.61 110.128L994.81 156.728C986.439 158.741 979.893 165.261 977.847 173.624L909.054 454.741C907.911 459.415 908.261 464.329 910.057 468.792L1033.94 776.764C1036.22 782.413 1040.64 786.93 1046.23 789.325L1256.97 879.497C1266.32 883.496 1277.19 880.884 1283.69 873.072Z" stroke="url(#paint3_linear_6938_34537)" stroke-opacity="0.4" stroke-width="4"/>
<path opacity="0.0724638" d="M1247.11 878.571L1401.95 711.887C1406.1 707.419 1408.3 701.486 1408.08 695.392L1396.04 366.85C1395.86 362.027 1394.17 357.382 1391.21 353.573L1215.14 127.179C1209.86 120.392 1201.24 117.116 1192.78 118.685L998.033 154.852C989.58 156.422 982.708 162.576 980.218 170.806L897.17 445.321C895.772 449.94 895.863 454.882 897.43 459.447L1004.15 770.405C1006.13 776.173 1010.32 780.919 1015.8 783.599L1220.15 883.577C1229.26 888.033 1240.21 885.999 1247.11 878.571Z" stroke="url(#paint4_linear_6938_34537)" stroke-opacity="0.4" stroke-width="4"/>
<path opacity="0.0869565" d="M1210.67 882.944L1373.05 726.062C1377.44 721.819 1379.97 716.002 1380.06 709.895L1385.35 384.371C1385.43 379.53 1383.98 374.788 1381.21 370.819L1218.38 137.896C1213.46 130.859 1205.03 127.148 1196.52 128.272L1001.37 154.035C992.86 155.158 985.682 160.93 982.757 169.003L885.955 436.201C884.306 440.753 884.136 445.709 885.468 450.364L975.052 763.364C976.732 769.235 980.679 774.198 986.023 777.156L1183.55 886.525C1192.39 891.422 1203.4 889.969 1210.67 882.944Z" stroke="url(#paint5_linear_6938_34537)" stroke-opacity="0.4" stroke-width="4"/>
<path opacity="0.101449" d="M1174.43 886.211L1343.75 739.458C1348.38 735.452 1351.21 729.769 1351.64 723.667L1373.9 402.064C1374.24 397.219 1373.03 392.391 1370.45 388.274L1221.07 149.581C1216.52 142.313 1208.31 138.179 1199.76 138.854L1004.77 154.271C996.22 154.947 988.759 160.32 985.409 168.213L875.39 427.415C873.493 431.886 873.059 436.843 874.152 441.576L946.679 755.683C948.055 761.644 951.749 766.81 956.943 770.041L1147.22 888.362C1155.78 893.685 1166.81 892.813 1174.43 886.211Z" stroke="url(#paint6_linear_6938_34537)" stroke-opacity="0.4" stroke-width="4"/>
<path opacity="0.115942" d="M1138.45 888.393L1314.11 752.063C1318.95 748.306 1322.09 742.774 1322.83 736.692L1361.68 419.889C1362.27 415.052 1361.32 410.152 1358.94 405.895L1223.16 162.194C1218.99 154.715 1211.02 150.17 1202.46 150.397L1008.16 155.554C999.605 155.781 991.881 160.744 988.117 168.433L865.453 418.994C863.31 423.371 862.613 428.315 863.462 433.114L919.062 747.41C920.129 753.443 923.56 758.801 928.592 762.296L1111.23 889.116C1119.49 894.849 1130.51 894.556 1138.45 888.393Z" stroke="url(#paint7_linear_6938_34537)" stroke-opacity="0.4" stroke-width="4"/>
<path opacity="0.130435" d="M1102.79 889.516L1284.15 763.863C1289.2 760.369 1292.63 755.003 1293.7 748.96L1348.69 437.802C1349.54 432.987 1348.84 428.026 1346.68 423.64L1224.61 175.693C1220.83 168.023 1213.11 163.08 1204.56 162.86L1011.5 157.873C1002.96 157.653 994.993 162.19 990.826 169.655L856.118 410.97C853.735 415.239 852.774 420.157 853.375 425.009L892.229 738.591C892.984 744.681 896.14 750.217 900.998 753.967L1075.63 888.815C1083.57 894.94 1094.55 895.223 1102.79 889.516Z" stroke="url(#paint8_linear_6938_34537)" stroke-opacity="0.4" stroke-width="4"/>
<path opacity="0.144928" d="M1067.5 889.608L1253.94 774.852C1259.17 771.63 1262.9 766.448 1264.29 760.46L1334.93 455.76C1336.04 450.981 1335.59 445.973 1333.65 441.467L1225.36 190.034C1221.98 182.194 1214.54 176.869 1206.03 176.202L1014.73 161.215C1006.22 160.549 998.041 164.65 993.484 171.869L847.361 403.37C844.742 407.519 843.519 412.396 843.869 417.289L866.204 729.274C866.643 735.405 869.518 741.104 874.186 745.102L1040.48 887.491C1048.07 893.99 1058.99 894.845 1067.5 889.608Z" stroke="url(#paint9_linear_6938_34537)" stroke-opacity="0.4" stroke-width="4"/>
<path opacity="0.15942" d="M1032.63 888.698L1223.5 785.023C1228.91 782.085 1232.92 777.1 1234.62 771.185L1320.4 473.721C1321.77 468.991 1321.58 463.948 1319.86 459.334L1225.39 205.171C1222.42 197.182 1215.27 191.49 1206.82 190.381L1017.79 165.563C1009.34 164.454 1000.97 168.109 996.036 175.06L839.154 396.223C836.305 400.238 834.821 405.06 834.918 409.982L841.007 719.507C841.128 725.663 843.712 731.512 848.18 735.748L1005.83 885.18C1013.06 892.032 1023.87 893.453 1032.63 888.698Z" stroke="url(#paint10_linear_6938_34537)" stroke-opacity="0.4" stroke-width="4"/>
<path opacity="0.173913" d="M998.233 886.821L1192.9 794.372C1198.47 791.727 1202.75 786.956 1204.77 781.129L1305.12 491.642C1306.73 486.975 1306.81 481.911 1305.32 477.199L1224.64 221.056C1222.09 212.939 1215.26 206.897 1206.89 205.349L1020.63 170.897C1012.26 169.349 1003.72 172.549 998.433 179.214L831.471 389.552C828.399 393.421 826.656 398.176 826.497 403.113L816.659 709.342C816.461 715.505 818.746 721.49 823.001 725.952L971.721 881.918C978.573 889.104 989.264 891.081 998.233 886.821Z" stroke="url(#paint11_linear_6938_34537)" stroke-opacity="0.4" stroke-width="4"/>
<path opacity="0.188406" d="M964.361 884.014L1162.17 802.899C1167.89 800.556 1172.42 796.012 1174.75 790.292L1289.07 509.484C1290.94 504.893 1291.28 499.82 1290.03 495.023L1223.1 237.639C1220.96 229.416 1214.46 223.042 1206.2 221.061L1023.2 177.196C1014.94 175.215 1006.26 177.951 1000.62 184.311L824.279 383.382C820.992 387.093 818.992 391.766 818.577 396.706L793.172 698.828C792.655 704.983 794.634 711.087 798.666 715.767L938.209 877.745C944.669 885.244 955.203 887.769 964.361 884.014Z" stroke="url(#paint12_linear_6938_34537)" stroke-opacity="0.4" stroke-width="4"/>
<path opacity="0.202899" d="M931.057 880.313L1131.36 810.605C1137.21 808.572 1141.99 804.27 1144.62 798.671L1272.28 527.204C1274.4 522.702 1275 517.635 1273.99 512.763L1220.72 254.869C1219.01 246.561 1212.86 239.873 1204.72 237.466L1025.45 184.433C1017.31 182.027 1008.52 184.293 1002.56 190.33L817.552 377.736C814.057 381.277 811.804 385.855 811.131 390.784L770.561 688.016C769.725 694.146 771.393 700.355 775.19 705.24L905.337 872.704C911.391 880.494 921.739 883.555 931.057 880.313Z" stroke="url(#paint13_linear_6938_34537)" stroke-opacity="0.4" stroke-width="4"/>
<path opacity="0.217391" d="M898.364 875.759L1100.52 817.494C1106.48 815.778 1111.49 811.731 1114.42 806.27L1254.76 544.763C1257.12 540.363 1257.99 535.315 1257.23 530.38L1217.48 272.692C1216.19 264.322 1210.4 257.339 1202.42 254.515L1027.33 192.583C1019.34 189.759 1010.45 191.551 1004.19 197.247L811.256 372.634C807.562 375.992 805.06 380.462 804.13 385.367L748.836 676.958C747.681 683.047 749.033 689.345 752.584 694.424L873.146 866.839C878.781 874.897 888.915 878.482 898.364 875.759Z" stroke="url(#paint14_linear_6938_34537)" stroke-opacity="0.4" stroke-width="4"/>
<path opacity="0.231884" d="M866.323 870.395L1069.68 823.572C1075.73 822.179 1080.96 818.4 1084.18 813.093L1236.52 562.121C1239.12 557.837 1240.25 552.821 1239.74 547.836L1213.35 291.056C1212.49 282.645 1207.08 275.387 1199.27 272.155L1028.79 201.614C1020.98 198.382 1012.03 199.696 1005.47 205.036L805.36 368.093C801.475 371.259 798.73 375.606 797.543 380.475L728.001 665.706C726.53 671.738 727.56 678.107 730.857 683.368L841.673 860.195C846.877 868.5 856.772 872.594 866.323 870.395Z" stroke="url(#paint15_linear_6938_34537)" stroke-opacity="0.4" stroke-width="4"/>
<path opacity="0.246377" d="M834.971 864.266L1038.9 828.849C1045.03 827.784 1050.46 824.284 1053.96 819.147L1217.58 579.242C1220.41 575.086 1221.8 570.116 1221.54 565.092L1208.31 309.905C1207.88 301.476 1202.86 293.964 1195.24 290.333L1029.8 211.497C1022.18 207.866 1013.19 208.7 1006.37 213.67L799.83 364.132C795.765 367.093 792.782 371.307 791.34 376.125L708.062 654.312C706.278 660.269 706.983 666.695 710.016 672.124L810.956 852.822C815.719 861.349 825.348 865.937 834.971 864.266Z" stroke="url(#paint16_linear_6938_34537)" stroke-opacity="0.4" stroke-width="4"/>
<path opacity="0.26087" d="M804.345 857.417L1008.21 833.333C1014.39 832.602 1020.02 829.393 1023.8 824.439L1197.95 596.087C1201.01 592.072 1202.66 587.161 1202.66 582.111L1202.35 329.183C1202.34 320.758 1197.72 313.012 1190.32 308.994L1030.31 222.194C1022.91 218.176 1013.9 218.529 1006.83 223.115L794.636 360.763C790.399 363.511 787.185 367.576 785.489 372.332L689.019 642.825C686.926 648.693 687.303 655.158 690.064 660.743L781.028 844.768C785.341 853.493 794.679 858.559 804.345 857.417Z" stroke="url(#paint17_linear_6938_34537)" stroke-opacity="0.4" stroke-width="4"/>
<path opacity="0.275362" d="M774.474 849.896L977.648 837.04C983.876 836.645 989.677 833.737 993.719 828.983L1177.65 612.621C1180.93 608.759 1182.85 603.92 1183.1 598.858L1195.44 348.835C1195.85 340.435 1191.65 332.478 1184.48 328.086L1030.28 233.671C1023.11 229.279 1014.11 229.153 1006.82 233.341L789.74 358.001C785.344 360.525 781.905 364.431 779.958 369.111L670.869 631.299C668.472 637.061 668.519 643.549 670.999 649.276L751.917 836.084C755.772 844.984 764.795 850.509 774.474 849.896Z" stroke="url(#paint18_linear_6938_34537)" stroke-opacity="0.4" stroke-width="4"/>
<path opacity="0.289855" d="M745.388 841.753L947.263 839.983C953.515 839.929 959.475 837.331 963.771 832.789L1156.71 628.81C1160.21 625.113 1162.38 620.36 1162.89 615.297L1187.58 368.803C1188.41 360.45 1184.63 352.304 1177.71 347.551L1029.68 245.891C1022.76 241.138 1013.8 240.533 1006.3 244.314L785.108 355.856C780.564 358.147 776.909 361.881 774.714 366.472L653.607 619.783C650.911 625.423 650.626 631.919 652.82 637.773L723.649 826.823C727.039 835.872 735.725 841.837 745.388 841.753Z" stroke="url(#paint19_linear_6938_34537)" stroke-opacity="0.4" stroke-width="4"/>
<path opacity="0.304348" d="M717.115 833.036L917.093 842.181C923.35 842.467 929.453 840.189 933.992 835.874L1135.15 644.62C1138.86 641.1 1141.28 636.447 1142.05 631.395L1178.75 389.031C1180 380.746 1176.65 372.434 1170 367.335L1028.47 258.812C1021.82 253.713 1012.92 252.634 1005.24 255.996L780.708 354.337C776.028 356.387 772.164 359.937 769.725 364.426L637.227 608.327C634.238 613.831 633.622 620.316 635.522 626.284L696.25 817.037C699.171 826.212 707.497 832.596 717.115 833.036Z" stroke="url(#paint20_linear_6938_34537)" stroke-opacity="0.4" stroke-width="4"/>
<path opacity="0.318841" d="M689.675 823.798L887.173 843.652C893.416 844.28 899.644 842.33 904.415 838.254L1113 660.021C1116.9 656.689 1119.57 652.148 1120.59 647.121L1168.95 409.461C1170.62 401.265 1167.7 392.81 1161.34 387.381L1026.61 272.394C1020.25 266.964 1011.44 265.416 1003.61 268.351L776.503 353.452C771.699 355.252 767.635 358.606 764.957 362.981L621.716 596.981C618.44 602.333 617.493 608.79 619.094 614.857L669.737 806.782C672.184 816.057 680.131 822.839 689.675 823.798Z" stroke="url(#paint21_linear_6938_34537)" stroke-opacity="0.4" stroke-width="4"/>
<path opacity="0.333333" d="M663.088 814.09L857.538 844.418C863.749 845.387 870.086 843.771 875.075 839.947L1090.28 674.983C1094.36 671.849 1097.28 667.433 1098.56 662.444L1158.18 430.038C1160.26 421.952 1157.79 413.377 1151.73 407.633L1024.09 286.594C1018.03 280.85 1009.34 278.839 1001.37 281.339L772.457 353.205C767.543 354.748 763.289 357.896 760.376 362.144L607.061 585.793C603.506 590.978 602.229 597.392 603.526 603.542L644.127 796.11C646.098 805.46 653.646 812.618 663.088 814.09Z" stroke="url(#paint22_linear_6938_34537)" stroke-opacity="0.4" stroke-width="4"/>
<path opacity="0.347826" d="M637.371 803.966L828.225 844.501C834.385 845.81 840.813 844.535 846.008 840.974L1067.01 689.477C1071.28 686.552 1074.44 682.274 1075.97 677.335L1146.44 450.704C1148.92 442.749 1146.89 434.078 1141.16 428.037L1020.87 301.369C1015.13 295.328 1006.58 292.862 998.504 294.921L768.537 353.6C763.525 354.879 759.09 357.81 755.949 361.919L593.246 574.81C589.421 579.813 587.816 586.167 588.805 592.386L619.435 785.078C620.929 794.479 628.06 801.988 637.371 803.966Z" stroke="url(#paint23_linear_6938_34537)" stroke-opacity="0.4" stroke-width="4"/>
<path opacity="0.362319" d="M612.54 793.476L799.267 843.926C805.358 845.572 811.858 844.643 817.245 841.356L1043.24 703.476C1047.68 700.77 1051.06 696.643 1052.85 691.767L1133.74 471.404C1136.6 463.599 1135.03 454.855 1129.63 448.535L1016.93 316.673C1011.53 310.353 1003.13 307.44 994.979 309.055L764.708 354.637C759.613 355.646 755.008 358.35 751.645 362.309L580.253 564.076C576.168 568.885 574.238 575.161 574.915 581.435L595.671 773.74C596.689 783.167 603.386 791.003 612.54 793.476Z" stroke="url(#paint24_linear_6938_34537)" stroke-opacity="0.4" stroke-width="4"/>
<path opacity="0.376812" d="M588.601 782.676L770.693 842.718C776.697 844.698 783.251 844.119 788.815 841.118L1018.99 716.957C1023.58 714.48 1027.19 710.515 1029.24 705.714L1120.08 492.083C1123.32 484.447 1122.21 475.655 1117.15 469.074L1012.25 332.462C1007.2 325.881 998.989 322.532 990.775 323.698L760.934 356.317C755.769 357.05 751.006 359.517 747.428 363.314L568.06 553.638C563.724 558.239 561.473 564.421 561.836 570.733L572.841 762.153C573.383 771.58 579.633 779.719 588.601 782.676Z" stroke="url(#paint25_linear_6938_34537)" stroke-opacity="0.4" stroke-width="4"/>
<path opacity="0.391304" d="M565.564 771.618L742.535 840.907C748.433 843.216 755.022 842.991 760.749 840.284L994.29 729.897C999.027 727.658 1002.86 723.868 1005.15 719.154L1105.47 512.687C1109.09 505.24 1108.42 496.422 1103.73 489.601L1006.81 348.689C1002.12 341.867 994.122 338.094 985.873 338.809L757.182 358.637C751.961 359.09 747.052 361.312 743.266 364.935L556.645 543.539C552.069 547.918 549.502 553.991 549.548 560.325L550.95 750.371C551.02 759.775 556.807 768.19 565.564 771.618Z" stroke="url(#paint26_linear_6938_34537)" stroke-opacity="0.4" stroke-width="4"/>
<path opacity="0.405797" d="M543.433 760.355L714.819 838.518C720.593 841.152 727.199 841.282 733.072 838.879L969.176 742.274C974.048 740.281 978.088 736.677 980.623 732.064L1089.92 533.161C1093.9 525.921 1093.69 517.102 1089.37 510.06L1000.6 365.305C996.278 358.263 988.513 354.078 980.256 354.342L753.416 361.593C748.155 361.761 743.11 363.728 739.125 367.167L545.98 533.818C541.175 537.963 538.297 543.91 538.026 550.251L529.997 738.448C529.598 747.805 534.912 756.469 543.433 760.355Z" stroke="url(#paint27_linear_6938_34537)" stroke-opacity="0.4" stroke-width="4"/>
<path opacity="0.42029" d="M522.208 748.941L687.571 835.585C693.204 838.536 699.807 839.024 705.812 836.932L943.683 754.071C948.676 752.331 952.917 748.924 955.693 744.424L1073.47 553.456C1077.79 546.439 1078.03 537.644 1074.1 530.401L993.598 382.266C989.662 375.023 982.151 370.44 973.91 370.254L749.603 365.178C744.317 365.058 739.151 366.764 734.975 370.007L536.039 524.515C531.017 528.416 527.834 534.222 527.245 540.553L509.981 726.441C509.118 735.726 513.948 744.613 522.208 748.941Z" stroke="url(#paint28_linear_6938_34537)" stroke-opacity="0.4" stroke-width="4"/>
<path opacity="0.434783" d="M501.887 737.427L660.817 832.136C666.29 835.398 672.872 836.243 678.991 834.47L917.844 765.269C922.947 763.791 927.38 760.592 930.391 756.216L1056.11 573.519C1060.77 566.743 1061.46 557.994 1057.92 550.572L985.804 399.522C982.261 392.1 975.024 387.135 966.823 386.5L745.712 369.385C740.416 368.975 735.141 370.411 730.783 373.449L526.791 515.669C521.564 519.313 518.084 524.962 517.178 531.269L490.895 714.402C489.576 723.592 493.912 732.674 501.887 737.427Z" stroke="url(#paint29_linear_6938_34537)" stroke-opacity="0.4" stroke-width="4"/>
<path opacity="0.449275" d="M482.467 725.865L634.577 828.205C639.874 831.769 646.414 832.971 652.632 831.523L891.696 775.855C896.894 774.644 901.509 771.664 904.751 767.424L1037.88 593.303C1042.86 586.784 1044 578.103 1040.85 570.523L977.207 417.027C974.065 409.447 967.121 404.115 958.987 403.036L741.709 374.204C736.418 373.502 731.048 374.661 726.518 377.485L518.204 507.315C512.786 510.691 509.015 516.168 507.794 522.435L472.73 702.383C470.962 711.456 474.797 720.705 482.467 725.865Z" stroke="url(#paint30_linear_6938_34537)" stroke-opacity="0.4" stroke-width="4"/>
<path opacity="0.463768" d="M463.937 714.307L608.871 823.825C613.975 827.681 620.454 829.238 626.754 828.121L865.274 785.816C870.554 784.879 875.342 782.127 878.808 778.035L1018.8 612.759C1024.09 606.513 1025.66 597.924 1022.92 590.209L967.804 434.732C965.069 427.016 958.438 421.336 950.394 419.817L737.563 379.624C732.293 378.629 726.841 379.507 722.15 382.105L510.245 499.485C504.649 502.585 500.597 507.876 499.062 514.086L455.475 690.438C453.268 699.371 456.596 708.76 463.937 714.307Z" stroke="url(#paint31_linear_6938_34537)" stroke-opacity="0.4" stroke-width="4"/>
<path opacity="0.478261" d="M446.289 702.802L583.717 819.029C588.612 823.169 595.012 825.078 601.375 824.296L838.615 795.141C843.964 794.484 848.913 791.969 852.597 788.036L998.893 631.844C1004.48 625.884 1006.48 617.41 1004.16 609.581L957.593 452.592C955.271 444.762 948.971 438.751 941.041 436.799L733.243 385.633C728.01 384.345 722.491 384.935 717.648 387.3L502.878 492.213C497.118 495.027 492.794 500.117 490.948 506.256L439.116 678.617C436.478 687.388 439.296 696.888 446.289 702.802Z" stroke="url(#paint32_linear_6938_34537)" stroke-opacity="0.4" stroke-width="4"/>
<path opacity="0.492754" d="M429.509 691.399L559.132 813.852C563.802 818.263 570.103 820.52 576.512 820.078L811.757 803.821C817.16 803.448 822.258 801.18 826.153 797.417L978.196 650.513C984.054 644.852 986.481 636.515 984.577 628.595L946.576 470.558C944.671 462.637 938.719 456.315 930.928 453.937L728.719 392.216C723.539 390.634 717.967 390.932 712.985 393.056L496.066 485.526C490.157 488.045 485.57 492.921 483.417 498.973L423.634 666.969C420.578 675.557 422.882 685.14 429.509 691.399Z" stroke="url(#paint33_linear_6938_34537)" stroke-opacity="0.4" stroke-width="4"/>
<path opacity="0.507246" d="M413.58 680.146L535.129 808.328C539.558 813 545.743 815.601 552.179 815.5L784.737 811.851C790.179 811.766 795.415 809.753 799.513 806.17L956.739 668.725C962.856 663.377 965.698 655.198 964.215 647.209L934.757 488.585C933.273 480.596 927.684 473.983 920.054 471.188L723.964 399.357C718.853 397.484 713.243 397.485 708.133 399.36L489.772 479.451C483.728 481.668 478.89 486.316 476.433 492.266L409.01 655.542C405.548 663.927 407.338 673.564 413.58 680.146Z" stroke="url(#paint34_linear_6938_34537)" stroke-opacity="0.4" stroke-width="4"/>
<path opacity="0.521739" d="M398.484 669.089L511.72 802.494C515.894 807.412 521.943 810.351 528.389 810.594L757.591 819.226C763.058 819.432 768.42 817.682 772.714 814.29L934.555 686.441C940.915 681.417 944.161 673.417 943.1 665.383L922.142 506.628C921.081 498.593 915.87 491.709 908.425 488.508L718.949 407.038C713.923 404.877 708.291 404.579 703.064 406.196L483.955 474.013C477.792 475.92 472.714 480.328 469.959 486.161L395.222 644.382C391.366 652.544 392.642 662.207 398.484 669.089Z" stroke="url(#paint35_linear_6938_34537)" stroke-opacity="0.4" stroke-width="4"/>
<path opacity="0.536232" d="M384.198 658.273L488.913 796.385C492.819 801.536 498.712 804.806 505.15 805.394L730.356 825.944C735.833 826.444 741.309 824.964 745.789 821.774L911.68 703.624C918.264 698.935 921.903 691.135 921.266 683.077L908.74 524.641C908.103 516.584 903.283 509.452 896.044 505.856L713.647 415.243C708.722 412.796 703.082 412.195 697.751 413.549L478.573 469.234C472.307 470.825 467 474.981 463.953 480.682L382.242 633.534C378.008 641.455 378.771 651.116 384.198 658.273Z" stroke="url(#paint36_linear_6938_34537)" stroke-opacity="0.4" stroke-width="4"/>
<path opacity="0.550725" d="M370.701 647.739L466.718 790.036C470.342 795.407 476.063 799 482.474 799.932L703.072 832.005C708.544 832.801 714.119 831.598 718.777 828.618L888.154 720.241C894.944 715.896 898.964 708.315 898.75 700.257L894.564 542.582C894.351 534.524 889.934 527.167 882.924 523.189L708.035 423.95C703.226 421.221 697.595 420.316 692.172 421.401L473.587 465.132C467.234 466.403 461.712 470.294 458.378 475.85L370.046 623.039C365.448 630.701 365.703 640.332 370.701 647.739Z" stroke="url(#paint37_linear_6938_34537)" stroke-opacity="0.4" stroke-width="4"/>
<path opacity="0.565217" d="M357.967 637.531L445.139 783.483C448.469 789.058 453.999 792.965 460.366 794.241L675.773 837.411C681.225 838.504 686.887 837.585 691.713 834.824L864.015 736.259C870.992 732.268 875.379 724.924 875.587 716.888L879.628 560.408C879.836 552.373 875.834 544.812 869.072 540.466L702.088 433.138C697.411 430.132 691.803 428.922 686.303 429.732L468.954 461.725C462.53 462.67 456.805 466.287 453.192 471.682L358.602 612.94C353.656 620.326 353.409 629.9 357.967 637.531Z" stroke="url(#paint38_linear_6938_34537)" stroke-opacity="0.4" stroke-width="4"/>
<path opacity="0.57971" d="M345.967 627.686L424.18 776.763C427.204 782.525 432.526 786.737 438.83 788.355L648.498 842.166C653.913 843.556 659.649 842.926 664.634 840.393L839.305 751.649C846.45 748.018 851.19 740.93 851.816 732.94L863.948 578.078C864.574 570.088 860.996 562.348 854.503 557.649L695.783 442.786C691.254 439.509 685.686 437.993 680.12 438.523L464.63 459.026C458.152 459.642 452.238 462.974 448.354 468.196L347.879 603.274C342.603 610.367 341.86 619.857 345.967 627.686Z" stroke="url(#paint39_linear_6938_34537)" stroke-opacity="0.4" stroke-width="4"/>
<path opacity="0.594203" d="M334.671 618.243L403.842 769.91C406.548 775.844 411.646 780.35 417.868 782.306L621.281 846.276C626.645 847.963 632.44 847.627 637.572 845.331L814.064 766.385C821.359 763.122 826.437 756.306 827.477 748.383L847.542 595.553C848.582 587.63 845.435 579.735 839.23 574.699L689.098 452.871C684.732 449.328 679.22 447.507 673.603 447.752L460.571 457.048C454.055 457.332 447.966 460.37 443.819 465.404L337.843 594.076C332.254 600.863 331.022 610.243 334.671 618.243Z" stroke="url(#paint40_linear_6938_34537)" stroke-opacity="0.4" stroke-width="4"/>
<path opacity="0.608696" d="M324.049 609.235L384.125 762.959C386.505 769.047 391.362 773.836 397.484 776.127L594.16 849.75C599.456 851.732 605.297 851.694 610.567 849.643L788.34 780.442C795.764 777.552 801.164 771.026 802.613 763.192L830.432 612.793C831.881 604.959 829.173 596.933 823.274 591.579L682.016 463.367C677.828 459.567 672.388 457.442 666.733 457.399L456.735 455.799C450.198 455.749 443.949 458.483 439.549 463.318L328.461 585.382C322.576 591.848 320.866 601.091 324.049 609.235Z" stroke="url(#paint41_linear_6938_34537)" stroke-opacity="0.4" stroke-width="4"/>
<path opacity="0.623188" d="M314.066 600.696L365.026 755.946C367.069 762.171 371.671 767.229 377.675 769.851L567.168 852.597C572.381 854.873 578.253 855.137 583.649 853.337L762.175 793.8C769.709 791.288 775.414 785.066 777.265 777.343L812.64 629.763C814.491 622.04 812.227 613.908 806.651 608.253L674.516 474.251C670.522 470.201 665.169 467.774 659.491 467.44L453.076 455.286C446.535 454.901 440.141 457.324 435.498 461.946L319.692 577.222C313.532 583.355 311.355 592.437 314.066 600.696Z" stroke="url(#paint42_linear_6938_34537)" stroke-opacity="0.4" stroke-width="4"/>
<path opacity="0.637681" d="M304.686 592.657L346.54 748.905C348.239 755.248 352.568 760.562 358.437 763.509L540.339 854.829C545.454 857.397 551.341 857.965 556.852 856.424L735.614 806.442C743.238 804.31 749.23 798.407 751.476 790.816L794.189 646.429C796.435 638.837 794.619 630.625 789.381 624.688L666.581 485.496C662.796 481.205 657.546 478.48 651.858 477.852L449.549 455.513C443.022 454.793 436.498 456.896 431.622 461.294L311.499 569.626C305.082 575.413 302.45 584.309 304.686 592.657Z" stroke="url(#paint43_linear_6938_34537)" stroke-opacity="0.4" stroke-width="4"/>
<path opacity="0.652174" d="M295.875 585.145L328.661 741.868C330.009 748.311 334.052 753.867 339.768 757.131L513.708 856.461C518.707 859.316 524.596 860.192 530.21 858.916L708.705 818.351C716.399 816.602 722.66 811.031 725.291 803.592L775.107 662.756C777.738 655.317 776.373 647.048 771.489 640.851L658.198 497.077C654.635 492.554 649.505 489.533 643.822 488.61L446.113 456.481C439.616 455.425 432.978 457.203 427.879 461.366L303.844 562.619C297.189 568.05 294.117 576.738 295.875 585.145Z" stroke="url(#paint44_linear_6938_34537)" stroke-opacity="0.4" stroke-width="4"/>
<path opacity="0.666667" d="M287.596 578.187L311.382 734.87C312.372 741.393 316.116 747.176 321.661 750.751L487.305 857.507C492.175 860.645 498.05 861.831 503.756 860.825L681.494 829.514C689.238 828.15 695.749 822.924 698.756 815.657L755.422 678.714C758.429 671.448 757.515 663.149 752.999 656.711L649.353 508.965C646.026 504.222 641.032 500.91 635.368 499.69L442.722 458.188C436.272 456.798 429.537 458.245 424.227 462.161L296.684 556.225C289.813 561.292 286.314 569.747 287.596 578.187Z" stroke="url(#paint45_linear_6938_34537)" stroke-opacity="0.4" stroke-width="4"/>
<path opacity="0.681159" d="M279.807 571.806L294.691 727.942C295.319 734.525 298.75 740.52 304.108 744.396L461.163 857.985C465.887 861.402 471.733 862.897 477.518 862.168L654.028 839.923C661.803 838.944 668.544 834.073 671.915 826.998L735.163 694.274C738.534 687.2 738.071 678.896 733.935 672.24L640.033 521.134C636.955 516.182 632.112 512.583 626.482 511.066L439.333 460.63C432.947 458.909 426.13 460.02 420.621 463.679L289.977 550.465C282.911 555.159 279.002 563.362 279.807 571.806Z" stroke="url(#paint46_linear_6938_34537)" stroke-opacity="0.4" stroke-width="4"/>
<path opacity="0.695652" d="M272.471 566.022L278.578 721.114C278.839 727.738 281.945 733.927 287.101 738.095L435.311 857.914C439.875 861.603 445.676 863.409 451.527 862.96L626.354 849.571C634.14 848.974 641.091 844.469 644.815 837.605L714.36 709.408C718.084 702.545 718.071 694.261 714.326 687.409L630.227 533.555C627.413 528.405 622.736 524.527 617.155 522.713L435.903 463.801C429.599 461.752 422.717 462.522 417.021 465.915L283.681 545.358C276.441 549.672 272.14 557.601 272.471 566.022Z" stroke="url(#paint47_linear_6938_34537)" stroke-opacity="0.4" stroke-width="4"/>
<path opacity="0.710145" d="M265.546 560.854L263.029 714.417C262.92 721.062 265.69 727.428 270.626 731.878L409.777 857.314C414.165 861.269 419.907 863.385 425.812 863.221L598.519 858.453C606.296 858.238 613.437 854.107 617.499 847.472L693.046 724.092C697.108 717.458 697.541 709.219 694.197 702.195L619.927 546.2C617.387 540.866 612.893 536.714 607.375 534.604L432.39 467.692C426.183 465.318 419.252 465.745 413.384 468.863L277.752 540.919C270.358 544.847 265.683 552.483 265.546 560.854Z" stroke="url(#paint48_linear_6938_34537)" stroke-opacity="0.4" stroke-width="4"/>
<path opacity="0.724638" d="M258.991 556.317L248.029 707.881C247.549 714.525 249.973 721.051 254.674 725.771L384.59 856.207C388.787 860.421 394.453 862.845 400.4 862.971L570.571 866.569C578.319 866.733 585.629 862.983 590.017 856.595L671.253 738.304C675.64 731.916 676.515 723.747 673.58 716.574L609.125 559.041C606.873 553.536 602.576 549.118 597.136 546.714L428.752 472.291C422.659 469.598 415.698 469.679 409.669 472.513L272.147 537.161C264.621 540.699 259.591 548.023 258.991 556.317Z" stroke="url(#paint49_linear_6938_34537)" stroke-opacity="0.4" stroke-width="4"/>
<path opacity="0.73913" d="M252.766 552.424L233.563 701.532C232.71 708.155 234.778 714.822 239.229 719.8L359.775 854.617C363.766 859.082 369.342 861.813 375.317 862.231L542.556 873.92C550.257 874.459 557.714 871.098 562.412 864.971L649.016 752.023C653.713 745.896 655.024 737.822 652.506 730.525L597.816 572.049C595.862 566.387 591.777 561.711 586.43 559.015L424.949 477.586C418.986 474.579 412.011 474.312 405.836 476.855L266.82 534.094C259.185 537.238 253.82 544.234 252.766 552.424Z" stroke="url(#paint50_linear_6938_34537)" stroke-opacity="0.4" stroke-width="4"/>
<path opacity="0.753623" d="M246.827 549.187L219.613 695.397C218.388 701.979 220.091 708.768 224.278 713.991L335.356 852.569C339.128 857.275 344.598 860.311 350.587 861.023L514.52 880.512C522.155 881.42 529.738 878.452 534.73 872.604L626.369 765.23C631.361 759.381 633.1 751.426 631.003 744.028L585.996 585.195C584.351 579.392 580.493 574.467 575.253 571.481L420.942 483.56C415.126 480.246 408.154 479.63 401.846 481.874L261.729 531.726C254.004 534.474 248.327 541.127 246.827 549.187Z" stroke="url(#paint51_linear_6938_34537)" stroke-opacity="0.4" stroke-width="4"/>
<path opacity="0.768116" d="M241.132 546.612L206.158 689.502C204.562 696.021 205.894 702.912 209.803 708.367L311.356 850.087C314.894 855.025 320.243 858.363 326.233 859.371L486.508 886.351C494.058 887.622 501.746 885.052 507.015 879.496L603.348 777.909C608.617 772.353 610.775 764.54 609.105 757.067L573.66 598.45C572.336 592.521 568.719 587.358 563.6 584.086L416.692 490.195C411.037 486.58 404.086 485.616 397.661 487.556L256.827 530.061C249.035 532.412 243.067 538.706 241.132 546.612Z" stroke="url(#paint52_linear_6938_34537)" stroke-opacity="0.4" stroke-width="4"/>
<path opacity="0.782609" d="M235.64 544.704L193.18 683.87C191.217 690.305 192.17 697.278 195.788 702.95L287.797 847.199C291.088 852.359 296.3 855.994 302.279 857.301L458.565 891.447C466.014 893.074 473.784 890.905 479.313 885.655L579.989 790.048C585.518 784.798 588.085 777.149 586.845 769.627L560.811 611.787C559.815 605.748 556.454 600.356 551.471 596.803L412.164 497.47C406.686 493.564 399.772 492.252 393.243 493.881L252.071 529.1C244.234 531.055 237.997 536.978 235.64 544.704Z" stroke="url(#paint53_linear_6938_34537)" stroke-opacity="0.4" stroke-width="4"/>
<path opacity="0.797101" d="M230.309 543.467L180.658 678.523C178.331 684.854 178.9 691.888 182.215 697.762L264.699 843.933C267.73 849.304 272.789 853.232 278.743 854.837L430.736 895.812C438.065 897.788 445.896 896.021 451.666 891.089L556.329 801.634C562.099 796.702 565.064 789.241 564.254 781.694L547.448 625.175C546.79 619.044 543.697 613.434 538.864 609.604L407.321 505.364C402.035 501.174 395.175 499.517 388.559 500.83L247.419 528.843C239.557 530.403 233.075 535.944 230.309 543.467Z" stroke="url(#paint54_linear_6938_34537)" stroke-opacity="0.4" stroke-width="4"/>
<path opacity="0.811594" d="M225.097 542.9L168.569 673.482C165.882 679.688 166.063 686.762 169.064 692.823L242.079 840.319C244.836 845.888 249.729 850.104 255.644 852.009L403.062 899.463C410.254 901.778 418.125 900.413 424.117 895.811L532.404 812.659C538.396 808.057 541.747 800.805 541.366 793.259L533.573 638.588C533.26 632.382 530.449 626.566 525.781 622.465L402.131 513.852C397.05 509.389 390.262 507.388 383.573 508.382L242.825 529.287C234.96 530.455 228.256 535.603 225.097 542.9Z" stroke="url(#paint55_linear_6938_34537)" stroke-opacity="0.4" stroke-width="4"/>
<path opacity="0.826087" d="M219.963 543.002L156.891 668.767C153.851 674.828 153.641 681.921 156.316 688.151L219.955 836.385C222.426 842.141 227.137 846.639 233 848.842L375.585 902.416C382.625 905.061 390.513 904.097 396.709 899.835L508.251 823.116C514.447 818.854 518.169 811.832 518.217 804.312L519.19 651.998C519.23 645.735 516.714 639.726 512.224 635.36L396.561 522.908C391.7 518.182 385.001 515.841 378.254 516.512L238.248 530.425C230.4 531.205 223.499 535.952 219.963 543.002Z" stroke="url(#paint56_linear_6938_34537)" stroke-opacity="0.4" stroke-width="4"/>
<path opacity="0.84058" d="M214.865 543.767L145.596 664.395C142.211 670.29 141.607 677.381 143.947 683.764L198.337 832.163C200.51 838.091 205.025 842.865 210.822 845.366L348.343 904.69C355.214 907.654 363.098 907.09 369.477 903.178L483.905 833C490.285 829.087 494.362 822.316 494.835 814.847L504.303 665.377C504.702 659.075 502.493 652.887 498.194 648.262L390.579 532.505C385.951 527.527 379.357 524.85 372.568 525.195L233.644 532.25C225.834 532.646 218.76 536.985 214.865 543.767Z" stroke="url(#paint57_linear_6938_34537)" stroke-opacity="0.4" stroke-width="4"/>
<path opacity="0.855072" d="M209.765 545.188L134.664 660.383C130.941 666.093 129.943 673.159 131.938 679.676L177.242 827.683C179.105 833.77 183.409 838.813 189.127 841.611L321.375 906.309C328.063 909.581 335.922 909.413 342.464 905.857L459.405 842.31C465.947 838.754 470.364 832.252 471.257 824.86L488.919 678.698C489.683 672.378 487.793 666.024 483.699 661.148L384.159 542.614C379.776 537.395 373.304 534.388 366.488 534.405L228.975 534.749C221.221 534.768 213.999 538.693 209.765 545.188Z" stroke="url(#paint58_linear_6938_34537)" stroke-opacity="0.4" stroke-width="4"/>
<path opacity="0.869565" d="M204.624 547.256L124.068 656.745C120.018 662.249 118.626 669.269 120.268 675.903L156.68 822.977C158.223 829.209 162.301 834.513 167.927 837.606L294.72 907.296C301.211 910.863 309.023 911.087 315.708 907.895L434.787 851.045C441.471 847.854 446.209 841.639 447.516 834.348L473.048 691.936C474.181 685.616 472.621 679.111 468.745 673.992L377.275 553.203C373.15 547.756 366.815 544.424 359.989 544.113L224.2 537.91C216.523 537.559 209.178 541.066 204.624 547.256Z" stroke="url(#paint59_linear_6938_34537)" stroke-opacity="0.4" stroke-width="4"/>
<path opacity="0.884058" d="M199.403 549.958L113.781 653.493C109.415 658.773 107.629 665.725 108.912 672.456L136.658 818.077C137.87 824.439 141.708 829.995 147.23 833.38L268.41 907.676C274.69 911.527 282.435 912.136 289.241 909.314L410.084 859.208C416.89 856.387 421.932 850.476 423.645 843.311L456.697 705.064C458.203 698.766 456.984 692.124 453.339 686.771L369.901 564.241C366.044 558.578 359.863 554.929 353.042 554.288L219.279 541.717C211.698 541.004 204.255 544.09 199.403 549.958Z" stroke="url(#paint60_linear_6938_34537)" stroke-opacity="0.4" stroke-width="4"/>
<path opacity="0.898551" d="M194.064 553.282L103.778 650.64C99.1064 655.677 96.9313 662.539 97.8477 669.347L117.184 813.016C118.056 819.491 121.641 825.291 127.044 828.966L242.478 907.48C248.536 911.6 256.194 912.588 263.099 910.14L385.334 866.804C392.239 864.357 397.565 858.766 399.675 851.75L439.878 718.059C441.76 711.802 440.891 705.039 437.489 699.461L362.014 575.694C358.437 569.829 352.426 565.87 345.625 564.9L214.176 546.152C206.709 545.086 199.193 547.751 194.064 553.282Z" stroke="url(#paint61_linear_6938_34537)" stroke-opacity="0.4" stroke-width="4"/>
<path opacity="0.913043" d="M188.576 557.21L94.0333 648.194C89.0701 652.97 86.509 659.719 87.054 666.586L98.2656 807.826C98.7874 814.399 102.105 820.432 107.377 824.393L216.958 906.735C222.781 911.111 230.332 912.469 237.315 910.398L360.573 873.84C367.555 871.768 373.145 866.512 375.64 859.669L422.604 730.896C424.863 724.701 424.355 717.834 421.208 712.04L353.597 587.528C350.31 581.475 344.483 577.214 337.718 575.916L208.858 551.195C201.521 549.787 193.958 552.03 188.576 557.21Z" stroke="url(#paint62_linear_6938_34537)" stroke-opacity="0.4" stroke-width="4"/>
<path opacity="0.927536" d="M182.898 561.726L84.5168 646.163C79.2758 650.661 76.3336 657.276 76.5032 664.181L79.9013 802.539C80.0647 809.193 83.1023 815.449 88.2296 819.693L191.874 905.474C197.451 910.09 204.877 911.811 211.916 910.118L335.829 880.322C342.868 878.63 348.699 873.721 351.568 867.074L404.884 743.551C407.521 737.44 407.382 730.487 404.503 724.486L344.628 599.708C341.64 593.481 336.012 588.927 329.299 587.303L203.285 556.823C196.096 555.085 188.51 556.909 182.898 561.726Z" stroke="url(#paint63_linear_6938_34537)" stroke-opacity="0.4" stroke-width="4"/>
<path opacity="0.942029" d="M177.003 566.807L75.2047 644.553C69.7011 648.756 66.3843 655.216 66.1752 662.138L62.096 797.188C61.8932 803.905 64.6376 810.374 69.6081 814.896L167.256 903.729C172.578 908.571 179.859 910.643 186.933 909.329L311.139 886.263C318.213 884.949 324.264 880.401 327.493 873.971L386.736 756.002C389.751 749.998 389.99 742.974 387.389 736.778L335.094 612.197C332.413 605.811 326.999 600.974 320.353 599.027L197.429 563.014C190.405 560.956 182.82 562.365 177.003 566.807Z" stroke="url(#paint64_linear_6938_34537)" stroke-opacity="0.4" stroke-width="4"/>
<path opacity="0.956522" d="M170.856 572.435L66.0683 643.369C60.3183 647.262 56.6344 653.544 56.0447 660.462L44.8478 791.807C44.2715 798.568 46.7102 805.239 51.5115 810.034L143.127 901.535C148.185 906.586 155.304 908.999 162.39 908.063L286.533 891.674C293.619 890.739 299.868 886.561 303.442 880.371L368.173 768.229C371.566 762.353 372.19 755.277 369.878 748.897L324.98 624.958C322.615 618.43 317.427 613.319 310.864 611.052L191.258 569.741C184.412 567.377 176.853 568.375 170.856 572.435Z" stroke="url(#paint65_linear_6938_34537)" stroke-opacity="0.4" stroke-width="4"/>
<path opacity="0.971014" d="M164.43 578.584L57.0826 642.615C51.1033 646.181 47.0613 652.264 46.0898 659.158L28.1561 786.427C27.1996 793.214 29.3203 800.074 33.9402 805.138L119.51 898.927C124.296 904.172 131.236 906.913 138.314 906.354L262.043 896.571C269.121 896.012 275.544 892.214 279.446 886.282L349.215 780.212C352.981 774.485 353.998 767.377 351.986 760.824L314.276 637.955C312.234 631.299 307.286 625.927 300.82 623.344L184.744 576.978C178.092 574.321 170.582 574.915 164.43 578.584Z" stroke="url(#paint66_linear_6938_34537)" stroke-opacity="0.4" stroke-width="4"/>
<path opacity="0.985507" d="M157.697 585.231L48.2195 642.29C42.029 645.516 37.6388 651.379 36.2858 658.228L12.0153 781.08C10.673 787.874 12.4637 794.911 16.8902 800.238L96.425 895.942C100.931 901.364 107.676 904.42 114.724 904.233L237.696 900.969C244.744 900.782 251.317 897.373 255.53 891.719L329.875 791.93C334.013 786.376 335.428 779.253 333.727 772.54L302.973 651.149C301.259 644.382 296.564 638.76 290.211 635.866L177.86 584.696C171.415 581.76 163.977 581.958 157.697 585.231Z" stroke="url(#paint67_linear_6938_34537)" stroke-opacity="0.4" stroke-width="4"/>
<path d="M150.63 592.348L39.4524 642.394C33.0698 645.267 28.3428 650.89 26.6097 657.672L-3.58045 775.797C-5.31365 782.578 -3.86446 789.78 0.356868 795.363L73.8875 892.617C78.1089 898.2 84.6429 901.557 91.6401 901.738L213.521 904.886C220.519 905.066 227.217 902.051 231.721 896.693L310.174 803.365C314.678 798.007 316.497 790.89 315.116 784.028L291.064 664.502C289.683 657.64 285.253 651.78 279.027 648.582L170.582 592.863C164.356 589.664 157.012 589.475 150.63 592.348Z" stroke="url(#paint68_linear_6938_34537)" stroke-opacity="0.4" stroke-width="4"/>
<path d="M457.341 285.902L442.274 342.15H433.122L422.788 308.022L412.453 342.15H403.302L388.313 285.902H399.752L408.43 321.373L417.029 292.064C417.976 287.693 419.974 285.507 423.025 285.507C424.55 285.507 425.707 286.086 426.496 287.245C427.285 288.351 427.995 289.957 428.626 292.064L437.146 321.373L445.902 285.902H457.341ZM468.758 279.819C471.23 279.819 472.834 280.214 473.57 281.004C474.306 281.741 474.675 283.348 474.675 285.823C474.675 288.246 474.28 289.852 473.491 290.642C472.755 291.379 471.151 291.748 468.679 291.748C466.26 291.748 464.656 291.353 463.867 290.563C463.131 289.773 462.763 288.167 462.763 285.744C462.763 283.321 463.131 281.741 463.867 281.004C464.656 280.214 466.286 279.819 468.758 279.819ZM473.807 342.15H463.551V298.7H473.807V342.15ZM524.011 342.15H511.704L499.871 326.192L495.374 332.591V342.15H485.119V282.742H495.374V320.267L509.732 298.858H521.329L506.577 319.082L524.011 342.15ZM534.55 279.819C537.022 279.819 538.626 280.214 539.362 281.004C540.099 281.741 540.467 283.348 540.467 285.823C540.467 288.246 540.072 289.852 539.284 290.642C538.547 291.379 536.943 291.748 534.471 291.748C532.052 291.748 530.448 291.353 529.659 290.563C528.923 289.773 528.555 288.167 528.555 285.744C528.555 283.321 528.923 281.741 529.659 281.004C530.448 280.214 532.078 279.819 534.55 279.819ZM539.599 342.15H529.344V298.7H539.599V342.15ZM560.93 342.15L550.674 342.229V282.742H560.93V342.15ZM605.711 322.005H579.441C579.441 326.113 580.072 329.115 581.334 331.011C582.649 332.907 585.253 333.855 589.144 333.855C591.669 333.855 593.536 333.065 594.745 331.485C595.955 329.852 596.56 328.298 596.56 326.824H605.79C605.79 332.459 604.265 336.593 601.214 339.227C598.216 341.86 594.219 343.177 589.223 343.177C584.279 343.177 580.44 342.466 577.705 341.044C572.078 338.147 569.264 330.458 569.264 317.976C569.264 310.55 570.868 305.125 574.076 301.702C577.285 298.226 582.176 296.488 588.75 296.488C600.163 296.488 605.869 302.834 605.869 315.527C605.869 316.896 605.816 319.055 605.711 322.005ZM579.677 314.974H596.56C596.56 311.498 595.903 308.97 594.587 307.39C593.273 305.81 591.248 305.02 588.513 305.02C585.831 305.02 583.675 305.836 582.044 307.469C580.466 309.049 579.677 311.551 579.677 314.974ZM638.202 325.639L647.51 325.56C647.458 325.981 647.405 326.745 647.353 327.851C647.3 328.957 647.247 329.72 647.195 330.142C647.195 330.51 647.142 331.116 647.037 331.959C646.932 332.801 646.8 333.433 646.643 333.855C646.537 334.223 646.38 334.724 646.169 335.356C645.223 338.094 642.645 340.254 638.438 341.834C635.756 342.782 632.942 343.256 629.997 343.256C627.104 343.256 624.475 342.782 622.108 341.834C619.742 340.886 617.874 339.674 616.507 338.2C613.404 334.934 611.853 328.825 611.853 319.872C611.853 310.866 613.404 304.73 616.507 301.465C617.874 299.99 619.742 298.779 622.108 297.831C624.475 296.883 627.104 296.409 629.997 296.409C635.677 296.409 639.99 297.831 642.935 300.675C645.88 303.519 647.353 307.469 647.353 312.525H638.044C638.044 310.208 637.465 308.496 636.308 307.39C635.151 306.231 632.995 305.652 629.839 305.652C626.736 305.652 624.659 306.626 623.607 308.575C622.608 310.524 622.108 313.447 622.108 317.344V321.452C622.108 327.719 623.318 331.564 625.737 332.986C626.842 333.67 628.288 334.013 630.076 334.013C631.864 334.013 633.31 333.855 634.415 333.539C635.572 333.17 636.387 332.564 636.86 331.722C637.386 330.879 637.728 330.063 637.886 329.273C638.044 328.43 638.149 327.219 638.202 325.639ZM675.323 342.15H668.933C665.041 342.15 662.07 340.991 660.019 338.674C658.02 336.356 657.021 333.591 657.021 330.379V306.679H652.682V298.858H657.021V290.01H667.276V298.858H674.534V306.679H667.276V329.747C667.276 332.222 668.46 333.46 670.826 333.46H675.323V342.15Z" fill="white"/>
<path d="M797.223 275H710.445C701.731 275 694.667 282.074 694.667 290.8V338.2C694.667 346.926 701.731 354 710.445 354H797.223C805.936 354 813 346.926 813 338.2V290.8C813 282.074 805.936 275 797.223 275Z" fill="#835FE5"/>
<path d="M736.715 331.802H715.233V297.571H722.081V326.161H736.715V331.802ZM765.43 331.802H743.949V297.571H750.797V326.161H765.43V331.802ZM777.635 297.571C777.892 298.345 778.205 299.341 778.573 300.557C778.978 301.774 779.402 303.083 779.843 304.484C780.285 305.885 780.727 307.304 781.169 308.742C781.611 310.18 782.033 311.507 782.439 312.723C782.881 311.359 783.342 309.958 783.819 308.521C784.297 307.046 784.758 305.645 785.2 304.318C785.642 302.954 786.048 301.682 786.415 300.502C786.782 299.322 787.113 298.345 787.409 297.571H793.042C793.298 300.557 793.539 303.47 793.759 306.309C794.016 309.147 794.221 311.968 794.367 314.77C794.552 317.535 794.698 320.336 794.809 323.175C794.919 325.977 795.01 328.853 795.085 331.802H788.845L789.176 305.203L784.979 319.691H780.009L775.978 305.203L776.254 331.802H770.014C770.124 329 770.235 326.088 770.345 323.065C770.492 320.042 770.64 317.037 770.787 314.051C770.934 311.064 771.1 308.17 771.284 305.369C771.505 302.567 771.744 299.968 772.002 297.571H777.635Z" fill="white"/>
</g>
<defs>
<linearGradient id="paint0_linear_6938_34537" x1="1385.84" y1="866.91" x2="1051.4" y2="60.3208" gradientUnits="userSpaceOnUse">
<stop stop-color="#FF1CF7"/>
<stop offset="1" stop-color="#00F0FF"/>
</linearGradient>
<linearGradient id="paint1_linear_6938_34537" x1="1348.32" y1="875.365" x2="1059.13" y2="59.6418" gradientUnits="userSpaceOnUse">
<stop stop-color="#FF1CF7"/>
<stop offset="1" stop-color="#00F0FF"/>
</linearGradient>
<linearGradient id="paint2_linear_6938_34537" x1="1310.79" y1="882.612" x2="1066.88" y2="60.2603" gradientUnits="userSpaceOnUse">
<stop stop-color="#FF1CF7"/>
<stop offset="1" stop-color="#00F0FF"/>
</linearGradient>
<linearGradient id="paint3_linear_6938_34537" x1="1273.31" y1="888.662" x2="1074.57" y2="62.1652" gradientUnits="userSpaceOnUse">
<stop stop-color="#FF1CF7"/>
<stop offset="1" stop-color="#00F0FF"/>
</linearGradient>
<linearGradient id="paint4_linear_6938_34537" x1="1235.95" y1="893.53" x2="1082.14" y2="65.342" gradientUnits="userSpaceOnUse">
<stop stop-color="#FF1CF7"/>
<stop offset="1" stop-color="#00F0FF"/>
</linearGradient>
<linearGradient id="paint5_linear_6938_34537" x1="1198.76" y1="897.233" x2="1089.52" y2="69.771" gradientUnits="userSpaceOnUse">
<stop stop-color="#FF1CF7"/>
<stop offset="1" stop-color="#00F0FF"/>
</linearGradient>
<linearGradient id="paint6_linear_6938_34537" x1="1161.82" y1="899.792" x2="1096.64" y2="75.4292" gradientUnits="userSpaceOnUse">
<stop stop-color="#FF1CF7"/>
<stop offset="1" stop-color="#00F0FF"/>
</linearGradient>
<linearGradient id="paint7_linear_6938_34537" x1="1125.17" y1="901.231" x2="1103.43" y2="82.2914" gradientUnits="userSpaceOnUse">
<stop stop-color="#FF1CF7"/>
<stop offset="1" stop-color="#00F0FF"/>
</linearGradient>
<linearGradient id="paint8_linear_6938_34537" x1="1088.89" y1="901.578" x2="1109.84" y2="90.3273" gradientUnits="userSpaceOnUse">
<stop stop-color="#FF1CF7"/>
<stop offset="1" stop-color="#00F0FF"/>
</linearGradient>
<linearGradient id="paint9_linear_6938_34537" x1="1053.02" y1="900.864" x2="1115.8" y2="99.5047" gradientUnits="userSpaceOnUse">
<stop stop-color="#FF1CF7"/>
<stop offset="1" stop-color="#00F0FF"/>
</linearGradient>
<linearGradient id="paint10_linear_6938_34537" x1="1017.63" y1="899.121" x2="1121.26" y2="109.787" gradientUnits="userSpaceOnUse">
<stop stop-color="#FF1CF7"/>
<stop offset="1" stop-color="#00F0FF"/>
</linearGradient>
<linearGradient id="paint11_linear_6938_34537" x1="982.754" y1="896.387" x2="1126.15" y2="121.136" gradientUnits="userSpaceOnUse">
<stop stop-color="#FF1CF7"/>
<stop offset="1" stop-color="#00F0FF"/>
</linearGradient>
<linearGradient id="paint12_linear_6938_34537" x1="948.452" y1="892.699" x2="1130.43" y2="133.51" gradientUnits="userSpaceOnUse">
<stop stop-color="#FF1CF7"/>
<stop offset="1" stop-color="#00F0FF"/>
</linearGradient>
<linearGradient id="paint13_linear_6938_34537" x1="914.768" y1="888.099" x2="1134.04" y2="146.864" gradientUnits="userSpaceOnUse">
<stop stop-color="#FF1CF7"/>
<stop offset="1" stop-color="#00F0FF"/>
</linearGradient>
<linearGradient id="paint14_linear_6938_34537" x1="881.747" y1="882.63" x2="1136.94" y2="161.153" gradientUnits="userSpaceOnUse">
<stop stop-color="#FF1CF7"/>
<stop offset="1" stop-color="#00F0FF"/>
</linearGradient>
<linearGradient id="paint15_linear_6938_34537" x1="849.429" y1="876.337" x2="1139.09" y2="176.326" gradientUnits="userSpaceOnUse">
<stop stop-color="#FF1CF7"/>
<stop offset="1" stop-color="#00F0FF"/>
</linearGradient>
<linearGradient id="paint16_linear_6938_34537" x1="817.853" y1="869.269" x2="1140.44" y2="192.334" gradientUnits="userSpaceOnUse">
<stop stop-color="#FF1CF7"/>
<stop offset="1" stop-color="#00F0FF"/>
</linearGradient>
<linearGradient id="paint17_linear_6938_34537" x1="787.055" y1="861.473" x2="1140.95" y2="209.123" gradientUnits="userSpaceOnUse">
<stop stop-color="#FF1CF7"/>
<stop offset="1" stop-color="#00F0FF"/>
</linearGradient>
<linearGradient id="paint18_linear_6938_34537" x1="757.065" y1="853.002" x2="1140.59" y2="226.64" gradientUnits="userSpaceOnUse">
<stop stop-color="#FF1CF7"/>
<stop offset="1" stop-color="#00F0FF"/>
</linearGradient>
<linearGradient id="paint19_linear_6938_34537" x1="727.913" y1="843.906" x2="1139.33" y2="244.827" gradientUnits="userSpaceOnUse">
<stop stop-color="#FF1CF7"/>
<stop offset="1" stop-color="#00F0FF"/>
</linearGradient>
<linearGradient id="paint20_linear_6938_34537" x1="699.627" y1="834.239" x2="1137.15" y2="263.629" gradientUnits="userSpaceOnUse">
<stop stop-color="#FF1CF7"/>
<stop offset="1" stop-color="#00F0FF"/>
</linearGradient>
<linearGradient id="paint21_linear_6938_34537" x1="672.226" y1="824.054" x2="1134.01" y2="282.986" gradientUnits="userSpaceOnUse">
<stop stop-color="#FF1CF7"/>
<stop offset="1" stop-color="#00F0FF"/>
</linearGradient>
<linearGradient id="paint22_linear_6938_34537" x1="645.73" y1="813.407" x2="1129.89" y2="302.841" gradientUnits="userSpaceOnUse">
<stop stop-color="#FF1CF7"/>
<stop offset="1" stop-color="#00F0FF"/>
</linearGradient>
<linearGradient id="paint23_linear_6938_34537" x1="620.156" y1="802.354" x2="1124.79" y2="323.133" gradientUnits="userSpaceOnUse">
<stop stop-color="#FF1CF7"/>
<stop offset="1" stop-color="#00F0FF"/>
</linearGradient>
<linearGradient id="paint24_linear_6938_34537" x1="595.517" y1="790.949" x2="1118.68" y2="343.802" gradientUnits="userSpaceOnUse">
<stop stop-color="#FF1CF7"/>
<stop offset="1" stop-color="#00F0FF"/>
</linearGradient>
<linearGradient id="paint25_linear_6938_34537" x1="571.821" y1="779.249" x2="1111.55" y2="364.789" gradientUnits="userSpaceOnUse">
<stop stop-color="#FF1CF7"/>
<stop offset="1" stop-color="#00F0FF"/>
</linearGradient>
<linearGradient id="paint26_linear_6938_34537" x1="549.075" y1="767.31" x2="1103.41" y2="386.034" gradientUnits="userSpaceOnUse">
<stop stop-color="#FF1CF7"/>
<stop offset="1" stop-color="#00F0FF"/>
</linearGradient>
<linearGradient id="paint27_linear_6938_34537" x1="527.281" y1="755.187" x2="1094.24" y2="407.474" gradientUnits="userSpaceOnUse">
<stop stop-color="#FF1CF7"/>
<stop offset="1" stop-color="#00F0FF"/>
</linearGradient>
<linearGradient id="paint28_linear_6938_34537" x1="506.44" y1="742.937" x2="1084.05" y2="429.053" gradientUnits="userSpaceOnUse">
<stop stop-color="#FF1CF7"/>
<stop offset="1" stop-color="#00F0FF"/>
</linearGradient>
<linearGradient id="paint29_linear_6938_34537" x1="486.547" y1="730.614" x2="1072.84" y2="450.71" gradientUnits="userSpaceOnUse">
<stop stop-color="#FF1CF7"/>
<stop offset="1" stop-color="#00F0FF"/>
</linearGradient>
<linearGradient id="paint30_linear_6938_34537" x1="467.597" y1="718.271" x2="1060.61" y2="472.387" gradientUnits="userSpaceOnUse">
<stop stop-color="#FF1CF7"/>
<stop offset="1" stop-color="#00F0FF"/>
</linearGradient>
<linearGradient id="paint31_linear_6938_34537" x1="449.578" y1="705.963" x2="1047.39" y2="494.027" gradientUnits="userSpaceOnUse">
<stop stop-color="#FF1CF7"/>
<stop offset="1" stop-color="#00F0FF"/>
</linearGradient>
<linearGradient id="paint32_linear_6938_34537" x1="432.479" y1="693.742" x2="1033.17" y2="515.575" gradientUnits="userSpaceOnUse">
<stop stop-color="#FF1CF7"/>
<stop offset="1" stop-color="#00F0FF"/>
</linearGradient>
<linearGradient id="paint33_linear_6938_34537" x1="416.284" y1="681.658" x2="1017.99" y2="536.974" gradientUnits="userSpaceOnUse">
<stop stop-color="#FF1CF7"/>
<stop offset="1" stop-color="#00F0FF"/>
</linearGradient>
<linearGradient id="paint34_linear_6938_34537" x1="400.975" y1="669.761" x2="1001.85" y2="558.173" gradientUnits="userSpaceOnUse">
<stop stop-color="#FF1CF7"/>
<stop offset="1" stop-color="#00F0FF"/>
</linearGradient>
<linearGradient id="paint35_linear_6938_34537" x1="386.531" y1="658.098" x2="984.779" y2="579.119" gradientUnits="userSpaceOnUse">
<stop stop-color="#FF1CF7"/>
<stop offset="1" stop-color="#00F0FF"/>
</linearGradient>
<linearGradient id="paint36_linear_6938_34537" x1="372.927" y1="646.717" x2="966.806" y2="599.764" gradientUnits="userSpaceOnUse">
<stop stop-color="#FF1CF7"/>
<stop offset="1" stop-color="#00F0FF"/>
</linearGradient>
<linearGradient id="paint37_linear_6938_34537" x1="360.139" y1="635.661" x2="947.957" y2="620.058" gradientUnits="userSpaceOnUse">
<stop stop-color="#FF1CF7"/>
<stop offset="1" stop-color="#00F0FF"/>
</linearGradient>
<linearGradient id="paint38_linear_6938_34537" x1="348.137" y1="624.973" x2="928.262" y2="639.957" gradientUnits="userSpaceOnUse">
<stop stop-color="#FF1CF7"/>
<stop offset="1" stop-color="#00F0FF"/>
</linearGradient>
<linearGradient id="paint39_linear_6938_34537" x1="336.892" y1="614.694" x2="907.755" y2="659.416" gradientUnits="userSpaceOnUse">
<stop stop-color="#FF1CF7"/>
<stop offset="1" stop-color="#00F0FF"/>
</linearGradient>
<linearGradient id="paint40_linear_6938_34537" x1="326.37" y1="604.861" x2="886.468" y2="678.396" gradientUnits="userSpaceOnUse">
<stop stop-color="#FF1CF7"/>
<stop offset="1" stop-color="#00F0FF"/>
</linearGradient>
<linearGradient id="paint41_linear_6938_34537" x1="316.538" y1="595.511" x2="864.443" y2="696.856" gradientUnits="userSpaceOnUse">
<stop stop-color="#FF1CF7"/>
<stop offset="1" stop-color="#00F0FF"/>
</linearGradient>
<linearGradient id="paint42_linear_6938_34537" x1="307.359" y1="586.677" x2="841.714" y2="714.762" gradientUnits="userSpaceOnUse">
<stop stop-color="#FF1CF7"/>
<stop offset="1" stop-color="#00F0FF"/>
</linearGradient>
<linearGradient id="paint43_linear_6938_34537" x1="298.794" y1="578.391" x2="818.323" y2="732.08" gradientUnits="userSpaceOnUse">
<stop stop-color="#FF1CF7"/>
<stop offset="1" stop-color="#00F0FF"/>
</linearGradient>
<linearGradient id="paint44_linear_6938_34537" x1="290.806" y1="570.68" x2="794.314" y2="748.778" gradientUnits="userSpaceOnUse">
<stop stop-color="#FF1CF7"/>
<stop offset="1" stop-color="#00F0FF"/>
</linearGradient>
<linearGradient id="paint45_linear_6938_34537" x1="283.354" y1="563.571" x2="769.73" y2="764.83" gradientUnits="userSpaceOnUse">
<stop stop-color="#FF1CF7"/>
<stop offset="1" stop-color="#00F0FF"/>
</linearGradient>
<linearGradient id="paint46_linear_6938_34537" x1="276.395" y1="557.087" x2="744.614" y2="780.21" gradientUnits="userSpaceOnUse">
<stop stop-color="#FF1CF7"/>
<stop offset="1" stop-color="#00F0FF"/>
</linearGradient>
<linearGradient id="paint47_linear_6938_34537" x1="269.888" y1="551.248" x2="719.014" y2="794.895" gradientUnits="userSpaceOnUse">
<stop stop-color="#FF1CF7"/>
<stop offset="1" stop-color="#00F0FF"/>
</linearGradient>
<linearGradient id="paint48_linear_6938_34537" x1="263.788" y1="546.073" x2="692.974" y2="808.867" gradientUnits="userSpaceOnUse">
<stop stop-color="#FF1CF7"/>
<stop offset="1" stop-color="#00F0FF"/>
</linearGradient>
<linearGradient id="paint49_linear_6938_34537" x1="258.052" y1="541.577" x2="666.544" y2="822.11" gradientUnits="userSpaceOnUse">
<stop stop-color="#FF1CF7"/>
<stop offset="1" stop-color="#00F0FF"/>
</linearGradient>
<linearGradient id="paint50_linear_6938_34537" x1="252.636" y1="537.772" x2="639.77" y2="834.61" gradientUnits="userSpaceOnUse">
<stop stop-color="#FF1CF7"/>
<stop offset="1" stop-color="#00F0FF"/>
</linearGradient>
<linearGradient id="paint51_linear_6938_34537" x1="247.495" y1="534.667" x2="612.701" y2="846.357" gradientUnits="userSpaceOnUse">
<stop stop-color="#FF1CF7"/>
<stop offset="1" stop-color="#00F0FF"/>
</linearGradient>
<linearGradient id="paint52_linear_6938_34537" x1="242.583" y1="532.27" x2="585.384" y2="857.343" gradientUnits="userSpaceOnUse">
<stop stop-color="#FF1CF7"/>
<stop offset="1" stop-color="#00F0FF"/>
</linearGradient>
<linearGradient id="paint53_linear_6938_34537" x1="237.857" y1="530.585" x2="557.868" y2="867.564" gradientUnits="userSpaceOnUse">
<stop stop-color="#FF1CF7"/>
<stop offset="1" stop-color="#00F0FF"/>
</linearGradient>
<linearGradient id="paint54_linear_6938_34537" x1="233.272" y1="529.612" x2="530.201" y2="877.019" gradientUnits="userSpaceOnUse">
<stop stop-color="#FF1CF7"/>
<stop offset="1" stop-color="#00F0FF"/>
</linearGradient>
<linearGradient id="paint55_linear_6938_34537" x1="228.783" y1="529.35" x2="502.429" y2="885.709" gradientUnits="userSpaceOnUse">
<stop stop-color="#FF1CF7"/>
<stop offset="1" stop-color="#00F0FF"/>
</linearGradient>
<linearGradient id="paint56_linear_6938_34537" x1="224.349" y1="529.797" x2="474.602" y2="893.639" gradientUnits="userSpaceOnUse">
<stop stop-color="#FF1CF7"/>
<stop offset="1" stop-color="#00F0FF"/>
</linearGradient>
<linearGradient id="paint57_linear_6938_34537" x1="219.922" y1="530.944" x2="446.762" y2="900.815" gradientUnits="userSpaceOnUse">
<stop stop-color="#FF1CF7"/>
<stop offset="1" stop-color="#00F0FF"/>
</linearGradient>
<linearGradient id="paint58_linear_6938_34537" x1="215.465" y1="532.783" x2="418.956" y2="907.247" gradientUnits="userSpaceOnUse">
<stop stop-color="#FF1CF7"/>
<stop offset="1" stop-color="#00F0FF"/>
</linearGradient>
<linearGradient id="paint59_linear_6938_34537" x1="210.936" y1="535.302" x2="391.23" y2="912.949" gradientUnits="userSpaceOnUse">
<stop stop-color="#FF1CF7"/>
<stop offset="1" stop-color="#00F0FF"/>
</linearGradient>
<linearGradient id="paint60_linear_6938_34537" x1="206.293" y1="538.487" x2="363.624" y2="917.933" gradientUnits="userSpaceOnUse">
<stop stop-color="#FF1CF7"/>
<stop offset="1" stop-color="#00F0FF"/>
</linearGradient>
<linearGradient id="paint61_linear_6938_34537" x1="201.499" y1="542.323" x2="336.18" y2="922.219" gradientUnits="userSpaceOnUse">
<stop stop-color="#FF1CF7"/>
<stop offset="1" stop-color="#00F0FF"/>
</linearGradient>
<linearGradient id="paint62_linear_6938_34537" x1="196.518" y1="546.791" x2="308.941" y2="925.826" gradientUnits="userSpaceOnUse">
<stop stop-color="#FF1CF7"/>
<stop offset="1" stop-color="#00F0FF"/>
</linearGradient>
<linearGradient id="paint63_linear_6938_34537" x1="191.311" y1="551.87" x2="281.941" y2="928.776" gradientUnits="userSpaceOnUse">
<stop stop-color="#FF1CF7"/>
<stop offset="1" stop-color="#00F0FF"/>
</linearGradient>
<linearGradient id="paint64_linear_6938_34537" x1="185.846" y1="557.537" x2="255.219" y2="931.093" gradientUnits="userSpaceOnUse">
<stop stop-color="#FF1CF7"/>
<stop offset="1" stop-color="#00F0FF"/>
</linearGradient>
<linearGradient id="paint65_linear_6938_34537" x1="180.091" y1="563.768" x2="228.809" y2="932.803" gradientUnits="userSpaceOnUse">
<stop stop-color="#FF1CF7"/>
<stop offset="1" stop-color="#00F0FF"/>
</linearGradient>
<linearGradient id="paint66_linear_6938_34537" x1="174.015" y1="570.539" x2="202.746" y2="933.934" gradientUnits="userSpaceOnUse">
<stop stop-color="#FF1CF7"/>
<stop offset="1" stop-color="#00F0FF"/>
</linearGradient>
<linearGradient id="paint67_linear_6938_34537" x1="167.589" y1="577.82" x2="177.057" y2="934.517" gradientUnits="userSpaceOnUse">
<stop stop-color="#FF1CF7"/>
<stop offset="1" stop-color="#00F0FF"/>
</linearGradient>
<linearGradient id="paint68_linear_6938_34537" x1="160.787" y1="585.582" x2="151.773" y2="934.582" gradientUnits="userSpaceOnUse">
<stop stop-color="#FF1CF7"/>
<stop offset="1" stop-color="#00F0FF"/>
</linearGradient>
<clipPath id="clip0_6938_34537">
<rect width="1200" height="630" rx="40" fill="white"/>
</clipPath>
</defs>
</svg>
